<svg xmlns="http://www.w3.org/2000/svg" height="1024" preserveAspectRatio="none" style="display: block;" version="1.1" viewBox="0 0 2048 2048" width="1024">
<path d="M 308.869 303.157 C 330.815 301.705 361.764 302.975 384.656 302.979 L 531.072 302.908 L 994.815 303.104 L 1491.84 302.92 L 1648.82 302.974 C 1674.06 302.972 1706.1 301.875 1730.61 303.187 C 1731.3 314.146 1730.6 333.087 1730.59 344.736 L 1730.55 431.052 L 1730.36 541 C 1730.37 561.615 1730.96 583.517 1730.25 603.991 L 1221.5 604.089 C 1110.58 604.162 996.982 602.787 886.269 604.084 C 885.18 632.808 886.017 668.071 886.057 697.206 L 886.483 876.97 L 1288.4 877.612 C 1347.2 877.491 1409.42 875.987 1467.88 877.134 C 1468.51 909.282 1467.82 943.561 1467.81 975.87 L 1468.09 1173.94 C 1400.32 1172.54 1329.18 1173.88 1261.04 1173.88 L 886.354 1174.08 C 885.11 1205.47 886.286 1245.16 886.194 1277.03 C 886.034 1332.2 885.375 1388.69 886.463 1443.7 C 915.356 1445.07 953.866 1443.95 983.169 1443.94 L 1170.5 1443.86 L 1542.4 1443.9 C 1603.17 1443.9 1670.01 1442.44 1730.21 1444.03 C 1731.26 1453.74 1730.69 1474.14 1730.68 1484.6 L 1730.57 1560.74 L 1730.52 1676.08 C 1730.55 1698.9 1731.12 1724.36 1730.27 1746.99 L 309.016 1747.14 C 309.528 1646.32 307.903 1545.1 309.107 1444.29 C 325.162 1442.6 370.423 1443.81 388.08 1443.82 L 515.36 1443.94 C 540.916 1443.96 568.562 1444.49 593.959 1443.52 C 595.668 1412.54 594.3 1372.99 594.161 1341.23 L 594.012 1174.11 C 500.803 1172.38 402.62 1173.9 309.013 1173.87 L 309.023 877.43 C 331.07 875.568 372.017 877.36 395.901 877.116 C 461.527 876.446 528.475 878.358 594.026 877.052 C 595.653 787.883 594.015 694.063 594.016 604.496 C 566.88 602.682 522.728 603.978 494.563 603.968 L 309.02 604.065 C 308.611 595.082 308.838 585.337 308.909 576.299 C 309.619 485.326 307.793 394.104 308.869 303.157 z" fill="rgb(45,41,38)" transform="translate(0,0)"></path>
<metadata><recraft-signature>{"signed_by": "recraft", "signature_b64": "o8jxDfUyxgpQ3pGLNxLkJa4piM/B8yrsmSYQhK+x+OzrJ/1p4UsB0kTUFR/NFOdqhzmz8RbgLB/5Bw5G/J/AAg==", "signing_algo": "Ed25519", "generation_timestamp": 1780713440, "identifier": "a8f9339d-a6ae-451b-b201-8219a649cc6a"}</recraft-signature></metadata></svg>