<svg xmlns="http://www.w3.org/2000/svg" height="1024" preserveAspectRatio="none" style="display: block;" version="1.1" viewBox="0 0 2048 2048" width="1024">
<path d="M 910.004 496.063 C 933.812 494.978 961.418 495.807 985.648 495.8 L 1125.96 495.773 L 1339.34 495.878 C 1372.99 495.562 1406.63 495.527 1440.28 495.773 C 1441.88 514.554 1440.77 551.862 1440.77 571.726 L 1440.77 722.064 L 1440.59 856.921 C 1440.55 871.107 1441.62 905.389 1440.21 918.097 L 1217.47 917.979 L 1217.49 709.299 C 1194.72 708.742 1157.58 708.388 1134.93 709.394 C 1133.6 741.017 1134.51 778.713 1134.49 810.699 L 1134.5 1013.05 C 1134.23 1056.01 1134.19 1098.97 1134.39 1141.93 C 1134.46 1156.31 1133.88 1190.53 1135.71 1203.06 C 1136.42 1212.28 1136.7 1269.36 1135.46 1276.91 C 1134.78 1285.1 1134.72 1334.86 1135.36 1343.04 C 1124.25 1343.31 1070.36 1342.18 1064.4 1343.85 C 1064.43 1321.83 1064.89 1298 1064.27 1276.09 L 1063.83 1274.92 C 1014.25 1274.6 959.151 1276.22 910.115 1274.56 C 909.557 1254.74 910.127 1232.44 910.16 1212.37 L 910.236 1092.98 L 909.985 709.108 C 885.973 709.427 850.232 707.949 827.334 709.643 L 826.941 710.542 C 806.253 710.149 777.293 712.179 757.275 710.307 L 756.452 709.239 C 757.04 704.705 756.454 687.383 756.386 682 C 756.119 667.322 756.257 652.64 756.799 637.969 L 757.046 637.218 L 827.152 637.257 L 827.351 637.702 C 854.956 637.595 882.561 637.662 910.165 637.903 C 910.055 592.744 908.662 540.635 910.004 496.063 z M 980.278 1203.59 C 1004.79 1204.27 1039.37 1204.55 1063.96 1203.8 L 1064.24 1203.04 C 1065.99 1149.03 1064.92 1089.13 1064.82 1034.83 L 1064.65 760.57 L 1064.53 677.184 C 1064.5 665.371 1063.89 650.004 1064.32 638.594 C 1091.58 636.627 1139.4 638.269 1167.99 638.351 C 1203.81 638.453 1253.21 636.409 1287.9 638.376 C 1288.11 706.378 1288.9 778.717 1287.62 846.457 C 1315.2 846.766 1342.79 846.932 1370.38 846.953 C 1371.45 754.547 1369.27 660.09 1369.91 567.301 C 1256.01 565.933 1141.79 567.916 1027.86 567.106 C 1012.24 566.995 995.999 566.788 980.414 567.171 C 979.579 610.383 980.154 655.151 980.167 698.52 L 980.19 927.12 L 980.14 1108.79 C 980.128 1139.29 979.326 1173.47 980.278 1203.59 z" fill="rgb(45,41,38)" transform="translate(0,0)"></path>
<path d="M 1064.24 1203.04 L 1135.71 1203.06 C 1136.42 1212.28 1136.7 1269.36 1135.46 1276.91 C 1134.78 1285.1 1134.72 1334.86 1135.36 1343.04 C 1124.25 1343.31 1070.36 1342.18 1064.4 1343.85 C 1064.43 1321.83 1064.89 1298 1064.27 1276.09 L 1063.83 1274.92 C 1062.42 1253.91 1064.24 1225.47 1063.96 1203.8 L 1064.24 1203.04 z" fill="rgb(13,115,119)" transform="translate(0,0)"></path>
<path d="M 1064.27 1276.09 C 1086.88 1277.03 1114.82 1275.43 1135.46 1276.91 C 1134.78 1285.1 1134.72 1334.86 1135.36 1343.04 C 1124.25 1343.31 1070.36 1342.18 1064.4 1343.85 C 1064.43 1321.83 1064.89 1298 1064.27 1276.09 z" fill="rgb(45,41,38)" transform="translate(0,0)"></path>
<path d="M 757.046 637.218 L 827.152 637.257 L 827.351 637.702 C 827.167 659.976 828.657 687.959 827.334 709.643 L 826.941 710.542 C 806.253 710.149 777.293 712.179 757.275 710.307 L 756.452 709.239 C 757.04 704.705 756.454 687.383 756.386 682 C 756.119 667.322 756.257 652.64 756.799 637.969 L 757.046 637.218 z" fill="rgb(13,115,119)" transform="translate(0,0)"></path>
<path d="M 1217.63 990.077 L 1353.47 989.939 C 1381.64 989.937 1412.08 989.369 1440.11 990.141 C 1441.09 999.431 1440.68 1012.51 1440.66 1022.11 L 1440.58 1072.89 L 1440.86 1231.96 L 1440.61 1452.94 L 1440.78 1520.98 C 1440.83 1531.97 1441.43 1548.63 1440.62 1558.98 L 1199.95 1559.1 C 1155.71 1559.11 1109.15 1559.75 1065.08 1558.79 C 1064.19 1518.94 1065.28 1478.86 1064.87 1438.98 C 1064.8 1431.49 1065.09 1423.69 1064.68 1416.23 L 1063.99 1415.45 C 1064.42 1391.66 1063.82 1367.61 1064.4 1343.85 C 1070.36 1342.18 1124.25 1343.31 1135.36 1343.04 L 1135.85 1343.81 C 1163.15 1344.1 1190.45 1344.15 1217.75 1343.96 C 1219.39 1257.07 1216.53 1168.79 1217.55 1081.84 C 1217.89 1052.97 1216.22 1017.83 1217.63 990.077 z M 1288.02 1415.69 L 1191.99 1415.16 C 1175.26 1415.09 1152.29 1414.45 1135.93 1415.56 L 1135.32 1416.27 C 1134.11 1432.14 1135.18 1469.4 1135.1 1487.03 C 1187.83 1487.53 1240.57 1487.71 1293.3 1487.58 C 1315.83 1487.58 1348.43 1488.53 1370.31 1487.07 C 1371.04 1474.47 1370.29 1453.83 1370.22 1440.64 L 1370 1353.39 L 1369.86 1061.88 C 1351.36 1060.33 1308.95 1061.52 1289.03 1061.93 C 1287.95 1091.45 1289.04 1127.54 1289.06 1157.5 L 1288.55 1331.48 C 1288.4 1356.55 1289.63 1391.92 1288.02 1415.69 z" fill="rgb(45,41,38)" transform="translate(0,0)"></path>
<path d="M 1135.36 1343.04 L 1135.85 1343.81 C 1135.25 1365.89 1135.58 1393.27 1135.93 1415.56 L 1135.32 1416.27 C 1113.72 1416.41 1085.05 1415.47 1064.68 1416.23 L 1063.99 1415.45 C 1064.42 1391.66 1063.82 1367.61 1064.4 1343.85 C 1070.36 1342.18 1124.25 1343.31 1135.36 1343.04 z" fill="rgb(13,115,119)" transform="translate(0,0)"></path>
<path d="M 605.944 638.217 C 652.975 636.481 709.199 637.982 756.799 637.969 C 756.257 652.64 756.119 667.322 756.386 682 C 756.454 687.383 757.04 704.705 756.452 709.239 C 729.782 709.774 702.574 708.872 676.097 709.776 C 674.613 769.662 676.012 836.313 675.985 896.616 L 676.012 1274.99 L 605.922 1274.83 L 605.944 638.217 z" fill="rgb(45,41,38)" transform="translate(0,0)"></path>
<path d="M 756.953 1343.18 C 780.326 1342.98 803.701 1342.95 827.075 1343.08 L 827.223 1343.73 C 826.422 1361.38 826.682 1397.09 827.214 1415.29 L 827.015 1415.98 C 825.409 1462.26 827.839 1512.16 826.563 1558.95 C 753.52 1559.67 678.946 1559.06 605.829 1558.9 C 606.792 1487.9 605.695 1415.42 605.938 1344.23 C 655.589 1342.96 706.628 1344.66 756.556 1343.86 L 756.953 1343.18 z M 756.989 1486.96 C 757.49 1468.37 757.713 1434.67 757.011 1416.34 L 756.467 1415.57 C 733.238 1414.47 699.473 1414.83 675.852 1415.2 C 675.389 1437.25 675.107 1464.93 675.259 1486.97 C 699.182 1487.91 732.602 1487.61 756.989 1486.96 z" fill="rgb(45,41,38)" transform="translate(0,0)"></path>
<path d="M 756.953 1343.18 C 780.326 1342.98 803.701 1342.95 827.075 1343.08 L 827.223 1343.73 C 826.422 1361.38 826.682 1397.09 827.214 1415.29 L 827.015 1415.98 C 804.775 1416.95 777.069 1415.11 757.011 1416.34 L 756.467 1415.57 C 755.928 1392.54 757.269 1366.66 756.556 1343.86 L 756.953 1343.18 z" fill="rgb(13,115,119)" transform="translate(0,0)"></path>
<path d="M 757.275 710.307 C 777.293 712.179 806.253 710.149 826.941 710.542 L 826.686 1151.97 L 826.735 1284.33 C 826.751 1297.25 825.78 1332.55 827.075 1343.08 C 803.701 1342.95 780.326 1342.98 756.953 1343.18 C 757.634 1299.11 757.007 1252.18 756.984 1207.97 L 756.891 944.5 L 756.944 783.684 C 756.963 762.914 758.363 729.681 757.275 710.307 z" fill="rgb(45,41,38)" transform="translate(0,0)"></path>
<path d="M 605.843 496.074 C 669.223 494.481 733.415 497.013 796.878 495.937 C 806.587 495.772 817.169 495.724 826.868 496.082 L 826.718 592.326 C 826.748 603.274 826.157 627.086 827.152 637.257 L 757.046 637.218 C 757.06 613.947 756.92 590.677 756.624 567.408 C 706.746 566.69 655.396 568.088 605.812 566.963 C 605.75 543.8 605.32 519.148 605.843 496.074 z" fill="rgb(45,41,38)" transform="translate(0,0)"></path>
<path d="M 827.223 1343.73 C 880.11 1345.12 936.94 1343.92 990.176 1344.04 L 1036.79 1344.36 C 1043.53 1344.42 1058.59 1344.89 1064.4 1343.85 C 1063.82 1367.61 1064.42 1391.66 1063.99 1415.45 C 1043.31 1413.88 1004.12 1415.1 981.826 1415.12 L 827.214 1415.29 C 826.682 1397.09 826.422 1361.38 827.223 1343.73 z" fill="rgb(45,41,38)" transform="translate(0,0)"></path>
<metadata><recraft-signature>{"signed_by": "recraft", "signature_b64": "PtVuK23ji7A9eAEvC/SopIIX4m+4qaqjZH/lJnPefV7rTSQauN2TNr+a/MMAl8UedVwcaqcnHqRuip6hxXOnDw==", "signing_algo": "Ed25519", "generation_timestamp": 1780713505, "identifier": "503f4f5d-3caf-4ccf-a52b-4af1ca577d6c"}</recraft-signature></metadata></svg>