<svg xmlns="http://www.w3.org/2000/svg" height="1024" preserveAspectRatio="none" style="display: block;" version="1.1" viewBox="0 0 2048 2048" width="1024">
<path d="M 1352.48 266.27 L 1354.11 262.899 C 1356.07 264.741 1355.25 273.7 1355.07 276.618 C 1356.02 297.144 1355.56 320.319 1355.58 341.084 L 1355.96 430.199 L 1356.02 711.491 L 1355.84 764.483 L 1356.09 897.047 L 1476.08 840.675 C 1492.8 832.771 1510.01 824.59 1526.71 816.742 C 1536.7 812.053 1556.57 811.412 1568.2 810.39 L 1639.37 804.561 C 1628.82 810.466 1618.26 816.367 1607.54 821.943 C 1573.64 839.573 1540.63 858.841 1506.57 876.176 C 1456.74 901.043 1406.68 925.444 1356.4 949.375 C 1354.76 996.608 1356.72 1044.72 1356.07 1092.05 C 1355.94 1101.74 1356.12 1112.07 1356.52 1121.77 C 1497.16 1190.75 1637.14 1261.08 1776.43 1332.73 L 1780.14 1335.06 C 1778.64 1336.02 1774.14 1334.58 1771.83 1334.11 L 1679.16 1320.5 C 1671.73 1319.38 1641.45 1315.21 1636.62 1313.19 C 1615.55 1304.37 1591.14 1290.56 1570.24 1280.05 C 1520.38 1255 1470.37 1230.25 1420.21 1205.8 C 1403.16 1197.46 1373.21 1180.88 1357.59 1174.62 L 1356.28 1174.1 C 1355.4 1229.64 1356.04 1286.74 1356.16 1342.38 C 1447.28 1389.94 1541.72 1433.25 1633.12 1480.47 C 1660.5 1494.62 1687.58 1509.44 1715.01 1523.48 L 1718.95 1525.39 L 1719.27 1526.51 C 1714.18 1526.64 1713.3 1526.4 1708.22 1525.35 C 1671.38 1519.07 1629.31 1516.01 1593.15 1508.79 C 1579 1505.96 1543.7 1485.93 1529.05 1478.8 L 1409.16 1420.63 C 1393.01 1412.9 1372.51 1402.17 1356.42 1395.41 C 1356.03 1442.55 1355.94 1489.68 1356.13 1536.82 C 1356.17 1552.81 1357.25 1591.64 1355.92 1606.4 C 1356.06 1610.89 1357.25 1628.31 1355.13 1630.75 C 1354 1628.49 1353.94 1628.65 1353.3 1626.26 C 1345.91 1610.94 1337.71 1586.61 1330.53 1570.29 C 1324.62 1556.89 1314.15 1530.57 1310.17 1517.19 C 1308.29 1510.89 1308.9 1476.51 1308.91 1466.89 L 1309.05 1372.25 C 1263.42 1353.82 1217.3 1326.15 1172.08 1305.88 C 1162.21 1301.45 1152.54 1296.11 1142.58 1291.6 C 1137.15 1290.78 1101.81 1271.85 1093.09 1268.09 L 1092.65 1267.25 C 1063.21 1252.46 1033.46 1238.04 1003.61 1224.14 C 989.746 1217.68 968.996 1205.73 955.465 1200.69 C 956.497 1239.42 955.948 1280.16 955.95 1319.07 L 955.896 1519.42 L 955.774 1614.48 C 955.68 1657.58 957.412 1656.41 941.858 1697.21 C 932.157 1722.35 922.22 1747.41 912.049 1772.37 C 911.145 1774.88 911.107 1776.19 909.298 1777.75 L 908.828 1773.21 L 908.008 1383.13 L 908.225 1251.51 C 908.294 1229.29 909.265 1199.9 907.974 1178.26 L 907.296 1177.22 C 886.715 1167.69 866.414 1156.65 846.26 1146.17 L 735.023 1088.09 C 735.066 1148.6 736.204 1213.15 734.889 1273.24 C 732.096 1269.11 724.316 1249.59 721.7 1243.71 C 711.674 1221.15 702.235 1198.43 689.945 1176.92 C 689.683 1145.26 689.581 1113.61 689.64 1081.95 L 689.944 1062.85 C 690.215 1045.79 689.344 1028.54 689.505 1011.67 C 697.809 1016.4 726.982 1031.46 734.679 1033.35 C 729.573 1028.67 697.785 1013.91 689.346 1009.76 L 688.664 1008.91 C 690.679 957.675 689.145 895.009 689.185 843.165 C 681.104 840.179 661.666 829.397 653.322 825.148 C 633.844 815.465 614.31 805.895 594.72 796.438 L 332.94 666.561 C 330.827 665.614 330.777 665.484 328.834 664.181 C 332.386 662.7 341.163 664.313 345.133 664.969 C 376.879 667.297 409.492 672.986 441.286 675.595 C 467.833 677.772 488.808 692.31 512.61 703.574 C 572.034 731.693 630.354 762.389 689.86 790.369 C 690.775 765.514 689.963 736.823 690.13 711.648 C 690.548 648.991 689.385 585.971 690.145 523.328 C 689.987 519.088 689.604 515.537 690.454 511.384 L 691.475 512.835 L 717.6 577.356 C 720.665 584.744 733.303 613.845 734.302 619.947 C 736.929 636.002 735.942 667.03 735.959 683.91 L 736.029 813.133 C 767.08 830.327 804.78 846.701 837.202 863.124 C 851.663 870.449 894.16 892.297 907.926 897.281 C 910.273 860.639 908.186 808.48 908.135 770.405 L 908.118 559.177 C 908.126 523.251 907.336 483.572 908.209 447.91 C 917.299 469.725 925.7 491.116 935.313 512.876 C 941.53 526.947 950.07 546.729 954.727 561.093 C 956.61 566.9 956.029 591.097 956 598.394 L 955.832 655.418 L 956.06 901.225 C 969.951 895.906 983.132 888.807 996.703 882.791 C 1028.99 868.478 1060.33 851.108 1092.34 836.463 L 1093.21 834.758 C 1097.94 834.834 1131.15 817.323 1139.18 814.021 C 1139.99 813.491 1141.49 812.161 1142.28 811.496 C 1158.73 804.895 1182.62 792.444 1199.12 784.584 C 1236.08 767.253 1272.82 749.484 1309.36 731.283 C 1310.14 698.03 1309.23 662.465 1309.16 629.004 L 1309.34 465.433 C 1309.35 437.015 1308.07 399.109 1310.76 370.996 C 1311.22 366.172 1324.26 335.936 1326.91 329.558 C 1335.62 308.537 1344.14 287.44 1352.48 266.27 z M 1308.56 1151.47 L 1190.64 1095.62 C 1178.72 1089.92 1151.63 1075.41 1141.07 1071.52 C 1140.67 1126.65 1141.7 1183.17 1141.72 1238.55 C 1189.36 1263.53 1238.73 1285.82 1286.58 1310.48 C 1293.76 1314.18 1301.65 1318.07 1309.06 1321.26 C 1309.41 1314.42 1309.32 1304.3 1308.97 1297.4 C 1306.62 1250.26 1311.91 1198.12 1308.56 1151.47 z M 957.762 1149.12 C 965.374 1154.49 1005.59 1173.7 1015.25 1178.16 C 1040.16 1189.67 1068.14 1204.96 1092.99 1215.47 C 1092.86 1160.75 1092.72 1103.66 1093.53 1049.02 C 1078.85 1039.94 1043.51 1023.85 1026.45 1015.57 C 1006.7 1005.99 976.249 989.746 956.966 982.055 L 957.36 1087.13 C 957.515 1104.95 958.779 1132.66 957.762 1149.12 z M 762.536 1047.91 C 775.563 1056.57 801.591 1068.83 816.381 1076.53 C 847.278 1093 878.313 1109.2 909.48 1125.15 C 910.751 1112.2 910.124 1086.71 910.13 1072.99 L 909.988 976.145 C 875.425 991.91 840.082 1010.7 805.55 1027.01 C 791.342 1033.71 776.85 1041.67 762.536 1047.91 z M 736.517 1007.87 C 743.455 1005.3 750.47 1002.25 757.076 998.895 C 798.151 978.044 840.323 958.489 880.928 936.81 C 854.438 922.311 821.051 908.558 793.776 893.942 C 786.656 890.127 741.708 867.821 736.15 866.26 C 736.097 909.746 734.62 965.227 736.517 1007.87 z M 1093.45 887.091 C 1086.2 889.824 1078.84 893.26 1071.85 896.642 C 1040.89 911.617 1009.12 925.749 978.449 941.276 C 1003.05 953.025 1027.56 964.949 1051.99 977.046 C 1064.25 983.105 1083.42 993.313 1095.47 998.185 C 1096.5 966.338 1095.34 934.464 1095.34 902.611 C 1095.34 897.309 1095.5 892 1094.84 886.73 L 1093.45 887.091 z M 1308.94 971.664 L 1307.03 972.351 C 1270.05 988.941 1233.93 1008 1196.85 1024.5 C 1189.2 1027.9 1181.21 1031.61 1173.91 1035.67 L 1265.81 1079.67 C 1279.46 1086.22 1294.76 1094.71 1308.28 1100.31 C 1309.17 1088.52 1308.57 1068.63 1308.56 1056.3 C 1308.41 1028.08 1308.54 999.873 1308.94 971.664 z M 1309.02 783.651 C 1294.33 788.939 1271.9 800.368 1257.18 807.201 C 1219.14 824.774 1181.44 843.04 1144.07 861.99 L 1144.06 945.124 C 1144.07 961.595 1143.7 980.638 1144.71 996.902 C 1149.86 995.348 1181.4 980.14 1188.03 977.037 C 1228.42 957.911 1268.68 938.497 1308.8 918.797 C 1309.98 875.168 1309.08 827.584 1309.02 783.651 z" fill="rgb(45,41,38)" transform="translate(0,0)"></path>
<path d="M 332.94 666.561 C 330.827 665.614 330.777 665.484 328.834 664.181 C 332.386 662.7 341.163 664.313 345.133 664.969 C 376.879 667.297 409.492 672.986 441.286 675.595 C 467.833 677.772 488.808 692.31 512.61 703.574 C 572.034 731.693 630.354 762.389 689.86 790.369 C 700.678 796.678 724.117 809.127 735.87 814.335 C 735.334 823.101 734.188 859.054 736.15 866.26 C 736.097 909.746 734.62 965.227 736.517 1007.87 C 743.455 1005.3 750.47 1002.25 757.076 998.895 C 798.151 978.044 840.323 958.489 880.928 936.81 C 898.466 930.905 936.806 910.275 955.95 901.526 C 955.876 911.16 954.398 977.764 956.966 982.055 L 957.36 1087.13 C 957.515 1104.95 958.779 1132.66 957.762 1149.12 L 957.308 1149.06 C 941.305 1141.54 925.466 1133.68 909.802 1125.47 L 909.48 1125.15 C 910.751 1112.2 910.124 1086.71 910.13 1072.99 L 909.988 976.145 C 875.425 991.91 840.082 1010.7 805.55 1027.01 C 791.342 1033.71 776.85 1041.67 762.536 1047.91 C 757.912 1044.34 740.012 1035.28 734.679 1033.35 C 729.573 1028.67 697.785 1013.91 689.346 1009.76 L 688.664 1008.91 C 690.679 957.675 689.145 895.009 689.185 843.165 C 681.104 840.179 661.666 829.397 653.322 825.148 C 633.844 815.465 614.31 805.895 594.72 796.438 L 332.94 666.561 z" fill="rgb(232,168,56)" transform="translate(0,0)"></path>
<path d="M 1308.76 1101.15 C 1319.54 1106.25 1347 1119.94 1356.94 1123.08 C 1356.84 1140.09 1356.62 1157.1 1356.28 1174.1 C 1355.4 1229.64 1356.04 1286.74 1356.16 1342.38 C 1447.28 1389.94 1541.72 1433.25 1633.12 1480.47 C 1660.5 1494.62 1687.58 1509.44 1715.01 1523.48 L 1718.95 1525.39 L 1719.27 1526.51 C 1714.18 1526.64 1713.3 1526.4 1708.22 1525.35 C 1671.38 1519.07 1629.31 1516.01 1593.15 1508.79 C 1579 1505.96 1543.7 1485.93 1529.05 1478.8 L 1409.16 1420.63 C 1393.01 1412.9 1372.51 1402.17 1356.42 1395.41 C 1356.03 1442.55 1355.94 1489.68 1356.13 1536.82 C 1356.17 1552.81 1357.25 1591.64 1355.92 1606.4 C 1356.06 1610.89 1357.25 1628.31 1355.13 1630.75 C 1354 1628.49 1353.94 1628.65 1353.3 1626.26 C 1345.91 1610.94 1337.71 1586.61 1330.53 1570.29 C 1324.62 1556.89 1314.15 1530.57 1310.17 1517.19 C 1308.29 1510.89 1308.9 1476.51 1308.91 1466.89 L 1309.05 1372.25 L 1309.06 1321.26 C 1309.41 1314.42 1309.32 1304.3 1308.97 1297.4 C 1306.62 1250.26 1311.91 1198.12 1308.56 1151.47 C 1308.47 1135.88 1307.9 1116.46 1308.76 1101.15 z" fill="rgb(232,168,56)" transform="translate(0,0)"></path>
<path d="M 908.124 1127.33 C 919.839 1132.85 945.38 1144.88 956.065 1150.93 C 954.678 1164.09 955.039 1187.39 955.171 1201.26 C 939.173 1193.68 923.75 1185.84 907.974 1178.26 L 907.296 1177.22 C 906.62 1169.29 906.682 1133.89 908.124 1127.33 z" fill="rgb(232,168,56)" transform="translate(0,0)"></path>
<path d="M 689.505 1011.67 C 697.809 1016.4 726.982 1031.46 734.679 1033.35 C 735.809 1044.33 734.721 1074.64 734.763 1087.26 C 721.598 1080.41 702.541 1068.13 689.944 1062.85 C 690.215 1045.79 689.344 1028.54 689.505 1011.67 z" fill="rgb(232,168,56)" transform="translate(0,0)"></path>
<path d="M 1308.8 918.797 L 1308.44 922.251 C 1305.61 928.88 1306.89 962.639 1307.03 972.351 C 1270.05 988.941 1233.93 1008 1196.85 1024.5 C 1189.2 1027.9 1181.21 1031.61 1173.91 1035.67 C 1171.57 1035.03 1147.85 1023.29 1144.39 1021.65 C 1144.3 1013.66 1143.96 1004.78 1144.71 996.902 C 1149.86 995.348 1181.4 980.14 1188.03 977.037 C 1228.42 957.911 1268.68 938.497 1308.8 918.797 z" fill="rgb(232,168,56)" transform="translate(0,0)"></path>
<path d="M 1140.41 815.025 C 1142.46 817.42 1141.24 856.38 1141.67 863.13 C 1126.52 871.339 1109.71 878.312 1094.84 886.73 L 1093.45 887.091 C 1092.36 871.376 1093.52 853.739 1093.06 837.755 L 1094.24 837.048 C 1095.04 836.565 1094.88 836.682 1095.7 836.336 C 1110.38 830.139 1126.45 822.75 1140.41 815.025 z" fill="rgb(232,168,56)" transform="translate(0,0)"></path>
<path d="M 1093.01 1216.86 C 1108.86 1225.04 1125.96 1234.55 1141.91 1242.14 C 1142.03 1255.73 1142.61 1276.79 1141.8 1289.92 C 1135.22 1286.07 1099.85 1268.47 1092.86 1266.21 C 1093.56 1251.11 1092.95 1232.24 1093.01 1216.86 z" fill="rgb(232,168,56)" transform="translate(0,0)"></path>
<path d="M 1309.37 922.925 C 1325.32 916.542 1340.95 908.385 1356.21 900.535 C 1356.12 916.663 1356.11 932.792 1356.18 948.921 C 1341.49 956.354 1324.12 965.435 1308.94 971.664 C 1308.98 963.925 1308.46 928.475 1309.37 922.925 z" fill="rgb(232,168,56)" transform="translate(0,0)"></path>
<path d="M 1093.09 1268.09 C 1101.81 1271.85 1137.15 1290.78 1142.58 1291.6 C 1141.53 1302.88 1141.85 1320.73 1141.74 1332.43 L 1141.2 1406.78 L 1141.03 1684.65 L 1141.04 1749.42 C 1141.14 1762.61 1141.83 1776.09 1141.04 1789.2 C 1131.76 1766.96 1123.41 1743.27 1114.01 1720.76 C 1108.1 1706.62 1098.58 1683.4 1094.9 1669.37 C 1093.24 1663.02 1093.71 1635.3 1093.73 1626.94 L 1093.84 1553.86 L 1093.09 1268.09 z" fill="rgb(232,168,56)" transform="translate(0,0)"></path>
<path d="M 1139.3 343.201 L 1140.82 339.007 L 1141.69 338.999 C 1142.49 344.538 1142.23 346.984 1141.9 352.442 C 1142.3 389.081 1141.39 426.654 1141.28 463.427 L 1141.32 673.65 C 1141.36 715.453 1139.76 771.047 1142.28 811.496 C 1141.49 812.161 1139.99 813.491 1139.18 814.021 C 1131.15 817.323 1097.94 834.834 1093.21 834.758 C 1094.09 825.418 1093.6 806.938 1093.61 797.094 L 1093.56 727.788 L 1093.87 550.953 L 1093.27 498.389 C 1092.97 475.859 1091.3 461.782 1100.37 440.506 C 1114 408.533 1125.33 375.036 1139.3 343.201 z" fill="rgb(232,168,56)" transform="translate(0,0)"></path>
<path d="M 263.163 847.566 L 283.294 850.934 C 319.703 854.7 369.723 864.294 406.482 869.61 C 416.967 871.126 463.86 897.102 476.906 903.627 L 612.398 970.683 L 660.939 995.175 C 668.829 999.172 680.834 1005.73 688.664 1008.91 L 689.346 1009.76 C 697.785 1013.91 729.573 1028.67 734.679 1033.35 C 726.982 1031.46 697.809 1016.4 689.505 1011.67 C 689.344 1028.54 690.215 1045.79 689.944 1062.85 C 687.28 1062.02 661.278 1048.17 656.358 1045.69 C 643.092 1037.74 622.393 1028.39 607.988 1021.27 L 536.256 985.015 L 274.08 852.549 C 270.858 851.295 266.413 849.066 263.163 847.566 z" fill="rgb(45,41,38)" transform="translate(0,0)"></path>
<path d="M 689.945 1176.92 C 702.235 1198.43 711.674 1221.15 721.7 1243.71 C 724.316 1249.59 732.096 1269.11 734.889 1273.24 C 735.648 1289.56 735.18 1308.31 735.148 1324.78 L 735.006 1415.29 L 735.087 1472.26 C 735.094 1479.59 735.88 1502.08 733.937 1507.4 C 720.325 1544.66 704.943 1584.39 690.046 1621.13 C 688.48 1602.53 689.32 1565.73 689.469 1546.14 C 689.761 1509.19 689.797 1472.24 689.577 1435.29 C 689.043 1377.29 689.042 1319.28 689.573 1261.28 C 689.663 1235.07 688.309 1202.21 689.945 1176.92 z" fill="rgb(232,168,56)" transform="translate(0,0)"></path>
<path d="M 1701.69 588.894 C 1705.61 588.372 1709.48 587.569 1713.36 588.179 C 1712.34 590.086 1713.02 589.246 1710.86 590.333 L 1355.84 764.483 L 1356.02 711.491 C 1361.53 708.063 1379.3 700.096 1386.03 696.918 L 1450.03 666.926 L 1542.05 622.397 C 1552.15 617.552 1582.49 601.731 1592.28 600.341 C 1626.67 595.46 1667.18 591.099 1701.69 588.894 z" fill="rgb(232,168,56)" transform="translate(0,0)"></path>
<path d="M 656.358 1045.69 C 661.278 1048.17 687.28 1062.02 689.944 1062.85 L 689.64 1081.95 C 651.872 1099.87 613.984 1117.53 575.979 1134.93 C 565.151 1139.94 532.643 1156.57 522.427 1158.22 C 492.088 1163.11 452.865 1165.04 422.16 1168.27 C 418.908 1168.74 412.785 1169.61 409.801 1168.61 L 411.914 1167.04 L 656.358 1045.69 z" fill="rgb(232,168,56)" transform="translate(0,0)"></path>
<metadata><recraft-signature>{"signed_by": "recraft", "signature_b64": "BJBa8im6uUHSToBN/FLOhZtANyodVSTZYEMCWzw36V4NSUZYSg12M1i4Qm7WzHHToYaJdsdAt8Sf2bnIYy9pDA==", "signing_algo": "Ed25519", "generation_timestamp": 1780713473, "identifier": "3ae98214-c63e-4dc5-8d8e-5a9fef49d2c9"}</recraft-signature></metadata></svg>