<svg xmlns="http://www.w3.org/2000/svg" height="1024" preserveAspectRatio="none" style="display: block;" version="1.1" viewBox="0 0 2048 2048" width="1024">
<path d="M 1389.93 114.615 C 1392.24 120.678 1391.17 191.211 1391.17 201.397 L 1391.04 387.817 C 1391.04 421.529 1390.17 461.76 1391.98 495.003 L 1686.03 308.901 C 1719.41 288.133 1754.21 265.117 1787.84 245.272 L 1728.77 448.925 C 1720.62 476.735 1712.41 507.76 1703.19 535.048 L 1497.91 661.88 C 1473.71 676.65 1449.62 691.572 1425.61 706.644 C 1415.41 713.054 1400.16 721.962 1391.11 728.869 C 1390.94 776.248 1390.03 826.032 1390.95 873.228 C 1403 864.639 1419.54 855.205 1432.43 846.881 L 1522.25 788.602 C 1543.79 774.84 1565.23 760.929 1586.57 746.871 C 1599.26 738.528 1615.49 727.083 1628.38 719.968 C 1611.81 775.929 1594.77 831.748 1577.26 887.419 C 1564.05 930.105 1552.38 970.873 1537.88 1013.39 C 1532.09 1018.42 1397.41 1101.27 1390.91 1103.26 L 1391.09 1250.97 C 1391.1 1267.93 1389.98 1306.8 1391.46 1322.15 C 1399.91 1324.84 1443.11 1353.85 1454.01 1360.43 L 1638.79 1473.88 C 1659.83 1487.08 1689.9 1504.03 1709.4 1517.6 C 1726.04 1578.99 1742.11 1640.54 1757.61 1702.23 L 1774.66 1768.59 C 1777.62 1779.81 1781.54 1792.24 1784.12 1803.3 L 1527.95 1639.32 C 1484.16 1611.5 1435.81 1578.64 1391.29 1553.39 L 1390.96 1828.47 L 1391.21 1896.35 C 1391.23 1903.8 1391.68 1926.01 1390.31 1932.1 L 1388.8 1932.48 C 1370.16 1921.64 1350.21 1907.04 1331.74 1895.36 C 1307.8 1880.21 1283.84 1865.1 1259.99 1849.83 L 991.054 1678.53 L 630.121 1450.05 L 507.612 1372.48 C 471.666 1349.87 437.521 1329.07 402.399 1305.17 C 401.137 1288.56 401.812 1261.17 401.749 1243.85 L 401.84 1117.29 L 402.112 748.054 C 416.052 737.034 454.531 713.53 471.212 703.041 L 579.997 633.949 L 928.263 410.546 L 1233.35 215.37 L 1339.94 146.901 C 1353.76 138.006 1376.26 121.74 1389.93 114.615 z M 607.034 1190.8 C 637.758 1212.43 678.119 1236.02 710.694 1256.5 L 910.782 1383.55 C 936.764 1400.22 967.858 1418.55 992.855 1435.59 C 992.302 1413.02 992.721 1389.86 992.715 1367.23 C 992.709 1346.83 992.013 1324.49 993.025 1304.26 L 992.971 925.364 C 992.974 868.562 991.569 806.552 992.693 750.277 L 992.31 664.99 C 992.253 649.465 991.564 628.61 992.498 613.432 C 970.826 626.705 949.855 641.201 928.401 654.855 L 684.052 810.26 C 660.602 824.872 630.02 846.205 607.237 859.141 L 607.034 1190.8 z" fill="rgb(13,115,119)" transform="translate(0,0)"></path>
<path d="M 1391.98 495.003 L 1686.03 308.901 C 1719.41 288.133 1754.21 265.117 1787.84 245.272 L 1728.77 448.925 C 1720.62 476.735 1712.41 507.76 1703.19 535.048 L 1497.91 661.88 C 1473.71 676.65 1449.62 691.572 1425.61 706.644 C 1415.41 713.054 1400.16 721.962 1391.11 728.869 C 1390.94 776.248 1390.03 826.032 1390.95 873.228 C 1403 864.639 1419.54 855.205 1432.43 846.881 L 1522.25 788.602 C 1543.79 774.84 1565.23 760.929 1586.57 746.871 C 1599.26 738.528 1615.49 727.083 1628.38 719.968 C 1611.81 775.929 1594.77 831.748 1577.26 887.419 C 1564.05 930.105 1552.38 970.873 1537.88 1013.39 C 1532.09 1018.42 1397.41 1101.27 1390.91 1103.26 L 1391.09 1250.97 C 1391.1 1267.93 1389.98 1306.8 1391.46 1322.15 C 1399.91 1324.84 1443.11 1353.85 1454.01 1360.43 L 1638.79 1473.88 C 1659.83 1487.08 1689.9 1504.03 1709.4 1517.6 C 1726.04 1578.99 1742.11 1640.54 1757.61 1702.23 L 1774.66 1768.59 C 1777.62 1779.81 1781.54 1792.24 1784.12 1803.3 L 1527.95 1639.32 C 1484.16 1611.5 1435.81 1578.64 1391.29 1553.39 C 1380.28 1544.95 1353.99 1528.92 1341.71 1520.91 C 1295.89 1491.15 1249.52 1462.24 1202.63 1434.19 C 1133.28 1391.91 1062.6 1345.41 993.025 1304.26 L 992.971 925.364 C 992.974 868.562 991.569 806.552 992.693 750.277 L 1279.55 566.945 L 1362.69 514.088 C 1368.54 510.346 1388.12 498.844 1391.98 495.003 z" fill="rgb(13,115,119)" transform="translate(0,0)"></path>
<path d="M 1195.62 852.102 C 1205.29 845.118 1218.39 837.368 1228.73 830.749 C 1253.04 814.99 1277.58 799.592 1302.35 784.56 C 1331.85 766.432 1361.77 746.397 1391.11 728.869 C 1390.94 776.248 1390.03 826.032 1390.95 873.228 C 1381.07 881.628 1347.25 901.515 1334.67 909.844 C 1289.4 939.836 1240.51 968.193 1195.75 998.808 C 1195.03 949.909 1194.99 901.002 1195.62 852.102 z" fill="rgb(232,168,56)" transform="translate(0,0)"></path>
<path d="M 1211.75 1212.22 C 1249.98 1187.41 1291.33 1163.54 1330.31 1139.62 C 1345.02 1130.6 1377.18 1109.42 1390.91 1103.26 L 1391.09 1250.97 C 1391.1 1267.93 1389.98 1306.8 1391.46 1322.15 C 1385.72 1321.38 1227.71 1223.32 1211.75 1212.22 z" fill="rgb(232,168,56)" transform="translate(0,0)"></path>
<path d="M 1389.93 114.615 C 1392.24 120.678 1391.17 191.211 1391.17 201.397 L 1391.04 387.817 C 1391.04 421.529 1390.17 461.76 1391.98 495.003 C 1388.12 498.844 1368.54 510.346 1362.69 514.088 L 1279.55 566.945 L 992.693 750.277 L 992.31 664.99 C 992.253 649.465 991.564 628.61 992.498 613.432 C 1004.82 604.389 1025.39 591.857 1038.6 583.436 L 1141.62 518.509 C 1149.25 513.617 1183.95 492.354 1186.71 487.803 C 1199.21 467.186 1212.94 440.126 1224.72 418.632 L 1328.99 228.171 C 1348.03 192.797 1369.67 148.259 1389.93 114.615 z" fill="rgb(232,168,56)" transform="translate(0,0)"></path>
<path d="M 993.025 1304.26 C 1062.6 1345.41 1133.28 1391.91 1202.63 1434.19 C 1249.52 1462.24 1295.89 1491.15 1341.71 1520.91 C 1353.99 1528.92 1380.28 1544.95 1391.29 1553.39 L 1390.96 1828.47 L 1391.21 1896.35 C 1391.23 1903.8 1391.68 1926.01 1390.31 1932.1 C 1386.58 1927.4 1376.02 1907.32 1372.84 1901.47 L 1340.2 1841.47 L 1225.87 1632.3 C 1219.81 1621.01 1190.81 1565.02 1184.89 1559.7 C 1171.54 1547.7 1129 1523.39 1112.05 1512.36 C 1072.85 1486.87 1031.49 1461.8 992.855 1435.59 C 992.302 1413.02 992.721 1389.86 992.715 1367.23 C 992.709 1346.83 992.013 1324.49 993.025 1304.26 z" fill="rgb(232,168,56)" transform="translate(0,0)"></path>
<metadata><recraft-signature>{"signed_by": "recraft", "signature_b64": "RhkijgmGomWzbwXps+SY2+PoqoV2O1p2uygHRaUkCXtJF1Zs3noO1ket7MUHCbd9YUVuxN9XiGrOdslsNpnRBw==", "signing_algo": "Ed25519", "generation_timestamp": 1780713489, "identifier": "d7f29d5d-8815-4cb1-bffd-51b3ca828207"}</recraft-signature></metadata></svg>