<svg xmlns="http://www.w3.org/2000/svg" height="1024" preserveAspectRatio="none" style="display: block;" version="1.1" viewBox="0 0 2048 2048" width="1024">
<path d="M 1077.06 1022.2 C 1077.1 1017.15 1075.44 1012.75 1078.46 1009.28 L 1081.53 1009.33 C 1085.35 1016.37 1113.64 1031.13 1121.85 1035.91 C 1143.55 1048.34 1165.01 1061.16 1186.24 1074.36 C 1192.11 1078.01 1206.51 1086.57 1210.62 1091.17 L 1212.13 1090.77 C 1256.31 1118.18 1303.74 1150.1 1347.11 1178.95 C 1428.37 1232.4 1508.98 1286.84 1588.92 1342.24 L 1667.23 1396.19 C 1682.87 1407.04 1698.99 1418.81 1715.05 1428.87 L 1712.35 1430.43 L 1271.98 1217.8 C 1216.32 1191.4 1159.44 1166.86 1103.66 1140.61 C 1081.24 1130.05 1057.95 1120.35 1035.81 1109.29 C 1032.57 1107.98 1029.89 1105.79 1026.98 1103.75 L 1026.06 1102.6 C 1034.73 1092.92 1044.71 1074.62 1051.8 1063.2 C 1060.15 1049.77 1069.18 1035.8 1077.06 1022.2 z" fill="rgb(189,121,28)" transform="translate(0,0)"></path>
<path d="M 1077.06 1022.2 C 1077.1 1017.15 1075.44 1012.75 1078.46 1009.28 L 1081.53 1009.33 C 1085.35 1016.37 1113.64 1031.13 1121.85 1035.91 C 1143.55 1048.34 1165.01 1061.16 1186.24 1074.36 C 1192.11 1078.01 1206.51 1086.57 1210.62 1091.17 C 1201.8 1091.1 1188.36 1092.81 1179.34 1093.7 L 1125.68 1099.02 C 1104.5 1101.09 1083.34 1103.36 1062.21 1105.83 C 1056.35 1106.52 1040.96 1108.04 1035.81 1109.29 C 1032.57 1107.98 1029.89 1105.79 1026.98 1103.75 L 1026.06 1102.6 C 1034.73 1092.92 1044.71 1074.62 1051.8 1063.2 C 1060.15 1049.77 1069.18 1035.8 1077.06 1022.2 z" fill="rgb(10,67,66)" transform="translate(0,0)"></path>
<path d="M 966.895 1010.25 C 966.398 1014.28 954.913 1033.69 952.264 1038.76 C 939.047 1064.06 926.43 1089.69 913.047 1114.91 C 907.53 1125.52 889.114 1159.22 886.277 1168.76 L 884.664 1170 C 777.879 1219.21 671.296 1272.24 564.915 1322.71 C 489.999 1358.24 409.831 1394.6 336.196 1432.53 L 334.206 1430.98 C 340.789 1425.43 368.541 1408.86 377.089 1403.25 L 482.054 1333.49 L 814.612 1111.68 L 920.656 1041.32 C 935.944 1031.1 952.046 1021 966.895 1010.25 z" fill="rgb(189,121,28)" transform="translate(0,0)"></path>
<path d="M 1066.09 871.267 C 1111.78 810.173 1153.57 742.361 1196 678.944 C 1253.51 594.012 1311.79 509.612 1370.85 425.753 C 1388.14 401.072 1405.25 376.263 1422.17 351.328 C 1425.85 345.933 1441.73 321.835 1445.3 318.493 C 1436.82 338.731 1420.96 366.479 1410.49 386.6 L 1349.58 504.267 L 1170.88 847.611 C 1151.17 884.866 1131.74 922.262 1112.57 959.796 C 1106.38 971.867 1092.33 996.412 1088.21 1007.78 C 1084.3 1008.07 1079.99 1008.04 1076.04 1008.1 L 1070.35 929.286 C 1069.71 918.931 1068.52 879.132 1065.96 871.793 L 1066.09 871.267 z" fill="rgb(189,121,28)" transform="translate(0,0)"></path>
<path d="M 1026.26 263.979 C 1030.08 264.709 1028.23 270.021 1030.7 274.943 C 1033.4 344.983 1038.85 417.797 1043.25 487.996 L 1055.74 703.527 C 1058.89 752.272 1060.72 801.126 1064.34 849.856 C 1064.87 856.935 1064.75 864.308 1066.09 871.267 L 1065.96 871.793 C 1037.37 912.164 1009.96 953.356 980.423 993.053 C 976.626 998.157 973 1003.41 968.859 1008.25 C 969.058 994.086 971.138 975.282 972.09 960.558 C 975.198 912.518 980.059 864.675 983.47 816.602 L 1026.26 263.979 z" fill="rgb(13,115,119)" transform="translate(0,0)"></path>
<path d="M 1026.06 1102.6 L 1026.98 1103.75 C 1022.91 1113.62 1001.58 1143.87 994.247 1154.8 L 929.156 1252.19 C 822.844 1411.83 711.919 1570.06 606.783 1730.3 L 604.081 1734.09 L 602.481 1733.43 L 605.526 1727.46 C 612.406 1715.12 619.782 1699.01 626.36 1686.13 L 688.696 1561.47 L 884.664 1170 L 886.277 1168.76 C 897.679 1164.46 915.113 1155.91 926.59 1150.46 C 959.947 1134.62 992.476 1118.13 1026.06 1102.6 z" fill="rgb(13,115,119)" transform="translate(0,0)"></path>
<path d="M 1089.37 1008.31 C 1133.07 1011.51 1187.9 1011.43 1231.76 1011.87 L 1387.84 1014.33 C 1528.78 1017.4 1669.73 1019.66 1810.69 1021.11 C 1817.46 1022.03 1825.34 1021.91 1832.24 1022.05 L 1834.01 1024.08 L 1378.55 1072.01 L 1267.71 1083.98 C 1251.37 1085.79 1227.5 1087.78 1212.13 1090.77 L 1210.62 1091.17 C 1206.51 1086.57 1192.11 1078.01 1186.24 1074.36 C 1165.01 1061.16 1143.55 1048.34 1121.85 1035.91 C 1113.64 1031.13 1085.35 1016.37 1081.53 1009.33 C 1084.15 1009.12 1086.77 1008.68 1089.37 1008.31 z" fill="rgb(13,115,119)" transform="translate(0,0)"></path>
<path d="M 968.859 1008.25 C 973 1003.41 976.626 998.157 980.423 993.053 C 1009.96 953.356 1037.37 912.164 1065.96 871.793 C 1068.52 879.132 1069.71 918.931 1070.35 929.286 L 1076.04 1008.1 C 1079.99 1008.04 1084.3 1008.07 1088.21 1007.78 L 1089.37 1008.31 C 1086.77 1008.68 1084.15 1009.12 1081.53 1009.33 L 1078.46 1009.28 C 1075.44 1012.75 1077.1 1017.15 1077.06 1022.2 C 1069.18 1035.8 1060.15 1049.77 1051.8 1063.2 C 1044.71 1074.62 1034.73 1092.92 1026.06 1102.6 C 992.476 1118.13 959.947 1134.62 926.59 1150.46 C 915.113 1155.91 897.679 1164.46 886.277 1168.76 C 889.114 1159.22 907.53 1125.52 913.047 1114.91 C 926.43 1089.69 939.047 1064.06 952.264 1038.76 C 954.913 1033.69 966.398 1014.28 966.895 1010.25 L 968.859 1008.25 z" fill="rgb(146,98,27)" transform="translate(0,0)"></path>
<path d="M 1028.26 243.384 C 1029.73 254.994 1030.01 263.402 1030.7 274.943 C 1028.23 270.021 1030.08 264.709 1026.26 263.979 C 1026.6 257.108 1027.4 250.203 1028.26 243.384 z" fill="rgb(104,155,160)" fill-opacity="0.984314" transform="translate(0,0)"></path>
<path d="M 1810.69 1021.11 C 1814.68 1020.79 1852.91 1020.64 1854.32 1021.5 C 1854.48 1021.95 1854.24 1022.26 1854.03 1022.79 C 1847.13 1021.27 1839.45 1022 1832.24 1022.05 C 1825.34 1021.91 1817.46 1022.03 1810.69 1021.11 z" fill="rgb(230,236,240)" fill-opacity="0.196078" transform="translate(0,0)"></path>
<path d="M 1715.05 1428.87 C 1716.68 1429.84 1724.5 1434.79 1725.47 1436.04 C 1725.26 1438.16 1713.97 1431.23 1712.35 1430.43 L 1715.05 1428.87 z" fill="rgb(209,171,113)" fill-opacity="0.87451" transform="translate(0,0)"></path>
<path d="M 1832.24 1022.05 C 1839.45 1022 1847.13 1021.27 1854.03 1022.79 C 1850.26 1023.01 1846.49 1023.18 1842.71 1023.31 C 1840.8 1023.04 1840.82 1022.85 1839.23 1023.71 L 1834.01 1024.08 L 1832.24 1022.05 z" fill="rgb(104,155,160)" fill-opacity="0.964706" transform="translate(0,0)"></path>
<path d="M 334.097 1433.19 C 332.676 1434.01 328.569 1436.64 327.181 1436.66 C 323.96 1436.7 332.366 1431.93 332.231 1432.01 L 334.097 1433.19 z" fill="rgb(209,171,113)" fill-opacity="0.807843" transform="translate(0,0)"></path>
<path d="M 602.481 1733.43 L 604.081 1734.09 C 603.482 1735.18 601.141 1739.84 599.729 1740.08 C 599.06 1738.72 601.834 1734.52 602.481 1733.43 z" fill="rgb(104,155,160)" fill-opacity="0.792157" transform="translate(0,0)"></path>
<path d="M 1839.23 1023.71 C 1840.82 1022.85 1840.8 1023.04 1842.71 1023.31 C 1841.15 1024.13 1841.09 1023.91 1839.23 1023.71 z" fill="rgb(141,185,185)" fill-opacity="0.580392" transform="translate(0,0)"></path>
<path d="M 332.231 1432.01 L 334.206 1430.98 L 336.196 1432.53 L 334.097 1433.19 L 332.231 1432.01 z" fill="rgb(232,168,56)" transform="translate(0,0)"></path>
<metadata><recraft-signature>{"signed_by": "recraft", "signature_b64": "Vmjb7aVK2l7ZDUjSHiAcF6kXkRlJ02lJ5W7/jS8ktFdw8JeMW1uw8+iVyFXcjEjelNTD1GutPwgl6q6njwk8Bg==", "signing_algo": "Ed25519", "generation_timestamp": 1780713425, "identifier": "8205b892-6a4d-49f3-83d4-a1ca1cdc0363"}</recraft-signature></metadata></svg>