<svg xmlns="http://www.w3.org/2000/svg" height="1024" preserveAspectRatio="none" style="display: block;" version="1.1" viewBox="0 0 2048 2048" width="1024">
<path d="M 1073.25 274.336 C 1083.33 274.016 1092.51 274.172 1102.55 274.383 C 1101.59 310.751 1102.36 348.953 1102.51 385.469 C 1102.69 433.788 1102.52 482.108 1102 530.424 C 1125.82 557.718 1160.99 589.934 1186.38 617.183 C 1189.59 692.042 1184.9 773.689 1187.18 849.474 C 1205.29 832.359 1227.53 808.202 1245.46 790.033 C 1256.14 799.74 1272.34 817.147 1282.81 827.824 C 1304.06 849.517 1325.44 871.079 1346.96 892.507 C 1347.51 919.524 1347.37 947.24 1347.33 974.332 C 1347.21 1071.06 1348.49 1168.32 1347 1265.01 C 1338.2 1265.26 1328.51 1265.01 1319.64 1264.97 C 1318.57 1244.48 1319.62 1213.22 1319.6 1191.66 L 1319.46 1017.42 C 1319.55 982.066 1320.77 938.563 1318.59 903.83 C 1311.3 894.448 1295.03 878.407 1286.2 869.369 C 1273.8 856.668 1259.34 840.95 1246.39 829.433 C 1226.54 849.602 1205.73 870.202 1186.57 890.894 C 1186.65 920.537 1188.05 962.338 1186.29 991.021 C 1177.4 991.368 1167.59 991.029 1158.63 990.903 C 1156.7 942.98 1158.77 891.092 1158.89 842.972 L 1158.56 628.047 C 1133.83 603.268 1109.67 577.145 1084.75 552.875 C 1075.61 561.547 1066.95 569.628 1058.41 578.901 C 1057.52 645.73 1059.14 712.933 1058.59 779.797 C 1058.47 793.703 1058.9 807.291 1058.12 821.216 C 1022.92 859.175 981.237 899.999 944.573 937.345 C 943.053 914.774 944.757 882.749 944.337 859.375 C 943.094 790.179 946.524 717.139 943.434 648.137 C 916.963 673.652 891.909 701.034 864.944 726.271 C 863.7 818.122 864.946 912.187 864.835 1004.33 L 864.853 1076.48 C 864.872 1090.27 865.296 1106.6 864.467 1120.07 L 836.704 1119.85 C 835.559 1099.51 836.708 1064.95 836.6 1043.26 C 836.146 989.634 835.997 936 836.152 882.368 C 812.395 905.56 789.01 929.13 766.006 953.069 C 755.428 964.107 741.53 977.963 731.958 989.616 C 730.472 1050.45 731.645 1113.81 731.487 1174.96 L 731.391 1232.37 C 731.381 1268.14 729.777 1260.92 745.249 1292.3 C 755.812 1313.94 766.514 1335.51 777.353 1357.02 C 782.485 1367.24 790.058 1383.43 796.04 1392.65 C 812.757 1363.59 829.604 1334.57 846.064 1305.37 C 860.194 1280.29 873.94 1253.9 889.272 1229.56 L 942.138 1519.1 C 948.716 1553.94 954.692 1594.14 962.489 1627.84 C 963.791 1612.55 969.757 1582.1 972.351 1565.55 L 993.42 1428.2 C 1007.01 1334.1 1021.68 1240.16 1037.46 1146.4 C 1042.99 1112.8 1047.26 1071.19 1053.97 1039.41 C 1055.1 1051.21 1058.58 1067.08 1060.65 1079.3 C 1064.78 1104.59 1069.12 1129.83 1073.68 1155.04 C 1077.03 1173.59 1079.77 1191.9 1082.76 1210.51 C 1095.57 1290.16 1111.34 1369.47 1121.62 1449.51 C 1123.84 1466.76 1128.23 1484.36 1129.43 1501.62 C 1150.01 1425.21 1169.83 1348.59 1188.89 1271.78 C 1198.28 1234.04 1207.22 1196.18 1215.7 1158.22 L 1273.72 1331.66 C 1285.03 1365.35 1297.63 1404.83 1311.25 1437.18 C 1320.51 1422.22 1339.77 1398.93 1350.22 1383.96 C 1356.09 1375.56 1377.12 1347.29 1383.03 1341.47 C 1413.13 1339.7 1455.08 1341.12 1486.24 1341.16 L 1671.33 1341.15 C 1672.28 1349.87 1671.71 1360.17 1671.26 1368.9 L 1394.83 1369.06 C 1378.4 1393.97 1359.72 1419.05 1342.94 1443.87 C 1329.61 1463.58 1316.37 1484.23 1302.73 1503.57 C 1287.53 1456.05 1271.77 1408.7 1255.46 1361.54 C 1244.85 1329.89 1233 1292.27 1220.99 1261.38 C 1213.45 1287.33 1207.88 1313.43 1201.04 1339.5 L 1156.87 1509.7 C 1148.89 1541.58 1139.98 1573.21 1131.94 1605.07 C 1129.58 1614.42 1127.35 1623.8 1124.2 1632.92 C 1120.74 1618.95 1117.6 1595.07 1115.17 1579.96 L 1098.96 1477.86 C 1084.6 1387.79 1069.71 1297.8 1054.28 1207.91 C 1050.37 1230.85 1047.93 1255.93 1044.3 1279.45 C 1027.55 1393.97 1009.94 1508.36 991.46 1622.62 C 985.924 1655.53 980.034 1687.87 973.448 1720.58 C 969.998 1737.71 968.204 1755.59 963.862 1772.52 C 960.459 1760.99 957.122 1739.89 954.695 1727.35 L 938.863 1647.96 C 919.756 1556.83 902.209 1465.39 886.228 1373.66 C 882.448 1352.06 880.208 1330.76 876.518 1309.25 C 872.434 1315.53 868.622 1322.36 865.15 1328.99 C 842.863 1371.57 817.385 1412.81 795.232 1455.39 C 789.115 1444.59 780.047 1424.12 774.23 1412.18 C 761.081 1384.98 747.584 1357.94 733.742 1331.09 C 728.052 1319.95 720.112 1303.35 713.666 1293.35 C 691.463 1315.89 663.768 1348.08 641.309 1368.34 C 632.33 1368.95 618.636 1368.45 609.243 1368.43 L 547.404 1368.43 C 491.6 1368.65 432.64 1369.85 377.109 1368.72 C 376.783 1359.91 376.974 1350.22 376.967 1341.34 C 400.64 1340.4 428.99 1341.11 452.942 1341.1 L 628.069 1341.37 L 704.17 1264.35 L 703.831 1065.26 C 703.851 1036.27 703.14 1006.14 703.82 977.346 C 712.989 966.527 732.75 948.881 743.635 937.925 L 836.564 843.889 C 838.796 802.992 834.54 756.718 837.124 716.024 C 842.007 710.461 852.166 701.09 857.876 695.384 L 904.418 648.84 C 924.124 629.116 952.209 598.442 971.95 580.76 C 973.511 646.594 970.749 714.981 971.993 781.017 C 972.48 806.897 970.696 842.494 973.034 867.142 C 991.218 850.24 1012.62 828.221 1029.42 809.993 C 1031.04 786.081 1030.01 750.101 1030.01 725.2 L 1029.96 569.795 C 1037 560.707 1063.66 534.883 1073.44 524.881 C 1072.2 497.154 1073.36 461.104 1073.45 432.859 L 1073.25 274.336 z" fill="rgb(13,115,119)" transform="translate(0,0)"></path>
<metadata><recraft-signature>{"signed_by": "recraft", "signature_b64": "13j9vD6V0/FsGZkzwmrBr3e21rlWfERTnXxnoeBguCLScPhZBjWT9uC3EEZocVYx7xGJgwOBy429ZWBZ5LB3CA==", "signing_algo": "Ed25519", "generation_timestamp": 1780713456, "identifier": "f735c486-b08d-4c7c-85de-0629c7966f19"}</recraft-signature></metadata></svg>