<svg xmlns="http://www.w3.org/2000/svg" height="1024" preserveAspectRatio="none" style="display: block;" version="1.1" viewBox="0 0 2048 2048" width="1024">
<path d="M 490.482 1326.77 C 508.9 1298.61 531.762 1268.33 551.364 1240.3 L 684.573 1049.68 L 1014.3 577.311 L 1195.21 318.556 L 1248.42 242.382 C 1255.46 232.323 1269.1 211.515 1276.74 202.919 C 1270.02 213.631 1265.37 224.355 1259.18 234.572 C 1238.2 269.203 1218.48 304.529 1198.38 339.639 L 1068.18 566.391 C 1068.78 569.457 1069.5 573.847 1070.47 576.663 C 1079.17 590.143 1089.63 610.672 1097.7 625.432 L 1148.66 718.944 C 1180.3 776.777 1215.41 835.142 1245.96 893.22 C 1270.07 879.342 1295.1 865.972 1319.43 852.26 L 1482.68 759.813 C 1544.35 725.533 1605.79 690.845 1667 655.75 L 1668.98 658.042 C 1628.87 685.761 1588.63 711.775 1548.08 738.754 L 1332.54 883.031 C 1310.12 898.178 1288.66 911.956 1266.28 927.542 C 1221.55 955.338 1174.32 988.62 1129.89 1017.68 C 1099.55 1037.3 1069.39 1057.2 1039.42 1077.37 C 1022.28 1088.85 1006.55 1098.72 990.002 1111.41 C 938.942 1140.66 892.76 1173.88 843.81 1205.63 L 511.802 1424.71 L 416.475 1487.65 C 400.087 1498.63 372.125 1518.65 355.664 1527.96 L 352.124 1527.78 C 357.455 1521.29 364.084 1511.97 368.693 1504.93 C 408.05 1444.87 451.018 1386.68 490.482 1326.77 z M 979.479 714.161 C 975.826 715.753 854.13 913.871 841.26 934.52 C 808.911 987.589 776.205 1040.44 743.142 1093.07 L 693.793 1172.5 C 683.996 1187.96 668.347 1210.94 659.972 1226.47 C 679.159 1218.84 700.091 1204.33 718.3 1194.02 C 806.893 1143.83 895.689 1093.31 984.072 1042.8 C 984.263 1006.35 982.233 970.436 981.236 934.108 C 980.28 893.367 979.636 852.619 979.305 811.868 C 978.846 781.676 976.73 743.383 979.479 714.161 z M 1050.6 1003.75 C 1091.09 980.878 1134.23 957.269 1174.13 933.492 C 1156.16 901.969 1133 867.964 1113.76 836.75 C 1099.2 813.124 1078.83 777.398 1062.58 755.759 C 1060.34 778.623 1059.35 803.694 1058.74 826.727 C 1057.19 885.648 1052.44 944.97 1050.6 1003.75 z" fill="rgb(232,168,56)" transform="translate(0,0)"></path>
<path d="M 490.482 1326.77 C 508.9 1298.61 531.762 1268.33 551.364 1240.3 L 684.573 1049.68 L 1014.3 577.311 L 1195.21 318.556 L 1248.42 242.382 C 1255.46 232.323 1269.1 211.515 1276.74 202.919 C 1270.02 213.631 1265.37 224.355 1259.18 234.572 C 1238.2 269.203 1218.48 304.529 1198.38 339.639 L 1068.18 566.391 C 1058.65 580.497 980.196 708.718 979.479 714.161 C 975.826 715.753 854.13 913.871 841.26 934.52 C 808.911 987.589 776.205 1040.44 743.142 1093.07 L 693.793 1172.5 C 683.996 1187.96 668.347 1210.94 659.972 1226.47 C 645.122 1237.98 625.206 1247.99 609.145 1258 C 571.03 1281.75 528.436 1303.35 490.482 1326.77 z" fill="rgb(45,41,38)" transform="translate(0,0)"></path>
<path d="M 1070.47 576.663 C 1079.17 590.143 1089.63 610.672 1097.7 625.432 L 1148.66 718.944 C 1180.3 776.777 1215.41 835.142 1245.96 893.22 C 1222.27 907.086 1198.32 920.512 1174.13 933.492 C 1156.16 901.969 1133 867.964 1113.76 836.75 C 1099.2 813.124 1078.83 777.398 1062.58 755.759 C 1063.36 751.202 1063.04 725.572 1063.69 717.39 C 1067.3 671.351 1067.06 622.434 1070.47 576.663 z" fill="rgb(45,41,38)" transform="translate(0,0)"></path>
<path d="M 990.002 1111.41 C 1006.55 1098.72 1022.28 1088.85 1039.42 1077.37 C 1069.39 1057.2 1099.55 1037.3 1129.89 1017.68 C 1174.32 988.62 1221.55 955.338 1266.28 927.542 C 1273.55 941.896 1286.71 962.914 1295.12 978.26 L 1386.16 1142.75 C 1459.04 1276.11 1531.25 1409.84 1602.79 1543.93 L 1664.13 1657.78 C 1676.06 1679.67 1689.6 1703.08 1700.84 1725.11 L 1705.43 1732.56 L 1704.59 1734.33 L 1699.03 1725.94 C 1677.31 1691.1 1651.99 1654.63 1628.8 1620.6 L 1563.7 1523.42 L 1202.32 982.459 C 1188.53 989.759 1174.83 999.605 1161.59 1008.16 L 1096.44 1050.33 C 1085.53 1057.53 1070.41 1068 1058.97 1074.14 C 1050.37 1184.94 1048.53 1299.03 1042.38 1410.03 L 1030.61 1656.99 L 1026.64 1744.27 C 1026.13 1756.05 1024.81 1771.12 1024.89 1782.49 C 1023.97 1786.76 1023.91 1789.74 1023.14 1793.91 C 1023.26 1782.25 1022.63 1770.53 1022.16 1758.86 C 1019.5 1693.84 1016.5 1628.57 1013.02 1563.62 L 995.681 1213.36 C 994.095 1179.27 991.256 1145.81 990.002 1111.41 z" fill="rgb(45,41,38)" transform="translate(0,0)"></path>
<path d="M 1683.23 646.655 L 1684.27 648.062 C 1680.32 649.544 1672.83 655.303 1668.98 658.042 L 1667 655.75 C 1672.25 652.646 1677.89 649.616 1683.23 646.655 z" fill="rgb(203,165,104)" fill-opacity="0.905882" transform="translate(0,0)"></path>
<path d="M 1683.23 646.655 C 1687.56 642.702 1694.85 640.79 1684.27 648.062 L 1683.23 646.655 z" fill="rgb(225,218,208)" fill-opacity="0.356863" transform="translate(0,0)"></path>
<path d="M 1709.34 1739.43 C 1710.34 1740.73 1714.27 1746.08 1713.9 1747.81 L 1713.56 1747.96 C 1712.31 1747.11 1709.24 1741.82 1708 1740.06 L 1709.34 1739.43 z" fill="rgb(142,140,137)" fill-opacity="0.8" transform="translate(0,0)"></path>
<path d="M 1023.14 1793.91 C 1023.91 1789.74 1023.97 1786.76 1024.89 1782.49 C 1024.94 1783.86 1025.57 1793.82 1023.79 1794.29 C 1023.58 1794.16 1023.36 1794.04 1023.14 1793.91 z" fill="rgb(112,114,111)" fill-opacity="0.403922" transform="translate(0,0)"></path>
<path d="M 1705.43 1732.56 C 1706.86 1735.06 1708.06 1736.82 1709.34 1739.43 L 1708 1740.06 C 1706.68 1737.99 1705.74 1736.49 1704.59 1734.33 L 1705.43 1732.56 z" fill="rgb(112,114,111)" fill-opacity="0.901961" transform="translate(0,0)"></path>
<path d="M 352.124 1527.78 L 355.664 1527.96 C 354.901 1528.45 351.555 1531.09 350.645 1530.57 C 350.539 1529.93 350.903 1529.51 351.268 1529.02 L 352.124 1527.78 z" fill="rgb(203,165,104)" fill-opacity="0.858824" transform="translate(0,0)"></path>
<metadata><recraft-signature>{"signed_by": "recraft", "signature_b64": "XzA3nxXm6AP0oqjh8v2/9ODxaj85sPeoj9scyDHr63Am4v0JD8WPv0SmxAXV/1pf+TmAMj3kS27ZFicpXVV5Bg==", "signing_algo": "Ed25519", "generation_timestamp": 1780717614, "identifier": "993dcb21-03d4-471f-9467-180e8ca837f0"}</recraft-signature></metadata></svg>