<svg xmlns="http://www.w3.org/2000/svg" height="1024" preserveAspectRatio="none" style="display: block;" version="1.1" viewBox="0 0 2048 2048" width="1024">
<path d="M 985.235 482.937 C 1003.62 482.285 1024.66 482.913 1043.3 482.992 C 1078.97 483.307 1114.63 483.223 1150.29 482.741 C 1147.51 491.419 1143.89 500.813 1140.53 509.346 C 1118.38 565.712 1099.57 624.856 1076.42 680.717 C 1069.87 705.355 1053.1 738.421 1047.77 760.057 C 1078.52 762.559 1117.35 759.904 1148.91 761.045 C 1154.17 761.235 1188.44 761.367 1191.46 760.659 C 1192.88 758.403 1194.25 756.118 1195.57 753.805 C 1185.84 789.448 1165.33 834.748 1152.99 870.568 C 1149.37 881.087 1129.26 935.639 1125.46 941.34 L 1129.72 927.545 C 1115.79 926.413 1094.86 926.977 1080.62 926.977 L 991.836 927.012 L 987.94 936.057 C 986.385 940.103 984.863 944.163 983.374 948.234 C 971.867 979.542 960.161 1010.78 948.257 1041.94 C 944.234 1052.41 936.976 1073.19 932.471 1082.65 C 927.927 1091.23 921.307 1109.85 917.451 1119.7 C 905.151 1151.26 893.245 1182.98 881.736 1214.84 C 874.065 1235.63 856.892 1276.15 852.519 1295.24 C 843.42 1323.5 829.595 1355.94 819.083 1384.22 C 797.034 1444.3 774.627 1504.24 751.861 1564.05 C 696.456 1564.13 636.304 1565.32 581.331 1564.05 C 612.837 1484.96 640.39 1404.06 669.983 1324.26 C 673.343 1315.2 676.707 1306.17 680.475 1297.27 C 681.099 1293.97 682.345 1290.31 683.355 1287.05 C 592.989 1285.63 498.637 1286.98 407.934 1286.96 C 416.854 1261.35 428.348 1233.37 437.997 1207.51 C 448.163 1180.27 459.738 1145.96 471.305 1120 C 495.279 1118.31 536.481 1119.64 561.389 1119.65 L 739.616 1119.55 C 743.846 1119.32 745.37 1119.99 748.218 1117.97 C 762.83 1076.2 780.388 1034 795.527 992.32 C 803.118 971.423 812.487 948.403 818.871 927.288 C 781.498 926.478 742.101 926.901 704.628 926.852 L 540.585 926.927 C 543.227 919.165 546.428 910.738 549.529 903.105 C 568.415 856.612 583.769 807.46 602.805 761.183 C 630.968 759.791 663.148 760.51 691.605 760.583 C 731.514 760.777 771.423 760.736 811.332 760.462 C 831.188 760.478 854.422 761.594 873.931 760.542 C 877.012 758.728 877.406 756.471 879.287 752.867 C 885.636 733.843 896.221 709.315 903.796 689.819 L 950.22 569.995 L 972.131 513.902 C 975.238 505.953 981.061 489.558 985.235 482.937 z" fill="rgb(45,41,38)" transform="translate(0,0)"></path>
<path d="M 982.781 933.215 C 985.378 931.034 985.803 929.768 988.258 929.945 C 988.552 932.99 988.475 933.01 987.94 936.057 C 986.385 940.103 984.863 944.163 983.374 948.234 C 971.867 979.542 960.161 1010.78 948.257 1041.94 C 944.234 1052.41 936.976 1073.19 932.471 1082.65 C 927.927 1091.23 921.307 1109.85 917.451 1119.7 C 905.151 1151.26 893.245 1182.98 881.736 1214.84 C 874.065 1235.63 856.892 1276.15 852.519 1295.24 C 843.42 1323.5 829.595 1355.94 819.083 1384.22 C 797.034 1444.3 774.627 1504.24 751.861 1564.05 C 696.456 1564.13 636.304 1565.32 581.331 1564.05 C 612.837 1484.96 640.39 1404.06 669.983 1324.26 C 673.343 1315.2 676.707 1306.17 680.475 1297.27 C 684.918 1290.29 697.246 1255.95 700.98 1246.09 C 715.372 1208.08 730.248 1169.84 744.225 1131.7 C 748.024 1124.24 757.051 1118.21 763.81 1112.4 C 767.323 1110.24 777.665 1101.32 781.348 1098.26 C 791.949 1089.38 802.641 1080.6 813.421 1071.94 C 869.477 1026.96 926.786 976.512 982.781 933.215 z" fill="rgb(232,168,56)" transform="translate(0,0)"></path>
<path d="M 985.235 482.937 C 1003.62 482.285 1024.66 482.913 1043.3 482.992 C 1078.97 483.307 1114.63 483.223 1150.29 482.741 C 1147.51 491.419 1143.89 500.813 1140.53 509.346 C 1118.38 565.712 1099.57 624.856 1076.42 680.717 C 1072.64 687.227 1067.74 701.457 1064.95 708.976 C 1058.76 726.079 1052.39 743.118 1045.84 760.088 L 931.921 759.916 C 922.885 759.926 885.866 760.643 878.593 759.664 C 878.148 756.498 878.525 755.947 879.287 752.867 C 885.636 733.843 896.221 709.315 903.796 689.819 L 950.22 569.995 L 972.131 513.902 C 975.238 505.953 981.061 489.558 985.235 482.937 z" fill="rgb(232,168,56)" transform="translate(0,0)"></path>
<path d="M 1299.29 483.602 C 1353.82 481.446 1410.83 483.757 1465.87 482.371 C 1460.99 498.768 1452.09 520.687 1445.89 537.432 L 1411.7 629.883 L 1381.31 710.898 C 1375.7 725.966 1368.97 745.755 1362.55 760.07 C 1369.9 763.397 1609.41 760.482 1640.22 761.381 C 1633.82 780.404 1625.66 801.584 1618.54 820.568 C 1605.63 854.936 1592.59 893.159 1578.38 926.81 L 1300.43 927.01 C 1285.44 970.963 1269.66 1014.64 1253.09 1058.02 C 1247.38 1073.33 1234.48 1104.9 1230.56 1119.21 C 1251.85 1120.35 1277.72 1119.3 1299.5 1119.28 L 1437.06 1119.22 C 1452.6 1119.19 1496.42 1118.04 1509.54 1119.61 C 1500.64 1146.5 1488.35 1176.9 1478.19 1203.77 C 1468.46 1229.49 1457.08 1262.4 1445.9 1286.97 L 1239.91 1287.03 C 1217.81 1287.02 1195.64 1286.41 1173.58 1287.16 C 1172.48 1287.2 1171.14 1290.09 1170.78 1290.9 L 1169.93 1287.97 C 1164.46 1285.86 1023.94 1288.19 1003.62 1287.33 C 1002.34 1290.53 1000.15 1296.59 998.376 1299.25 L 1001.6 1287.42 C 978.65 1286.1 948.734 1287.31 925.139 1287.09 C 905.721 1286.92 876.161 1286.11 857.681 1287.46 C 855.032 1288.84 853.939 1292.32 852.519 1295.24 C 856.892 1276.15 874.065 1235.63 881.736 1214.84 C 893.245 1182.98 905.151 1151.26 917.451 1119.7 C 921.307 1109.85 927.927 1091.23 932.471 1082.65 C 929.949 1092.82 923.386 1108.82 919.398 1119.04 C 936.224 1119.43 1053.25 1121.02 1056.85 1118 L 1058.33 1115.3 C 1082.12 1058.87 1102.75 998.545 1125.46 941.34 C 1129.26 935.639 1149.37 881.087 1152.99 870.568 C 1165.33 834.748 1185.84 789.448 1195.57 753.805 C 1202.36 733.043 1212.68 707.874 1220.69 687.225 L 1251.51 606.677 C 1266.84 567.263 1282.53 521.856 1299.29 483.602 z" fill="rgb(45,41,38)" transform="translate(0,0)"></path>
<path d="M 1299.29 483.602 C 1353.82 481.446 1410.83 483.757 1465.87 482.371 C 1460.99 498.768 1452.09 520.687 1445.89 537.432 L 1411.7 629.883 L 1381.31 710.898 C 1375.7 725.966 1368.97 745.755 1362.55 760.07 C 1359.69 762.933 1306.53 906.111 1299.75 922.126 C 1276.48 939.027 1253.53 958.431 1231.2 976.693 L 1117.34 1070.24 C 1110.66 1075.74 1063.5 1115.89 1059.37 1116.44 L 1058.33 1115.3 C 1082.12 1058.87 1102.75 998.545 1125.46 941.34 C 1129.26 935.639 1149.37 881.087 1152.99 870.568 C 1165.33 834.748 1185.84 789.448 1195.57 753.805 C 1202.36 733.043 1212.68 707.874 1220.69 687.225 L 1251.51 606.677 C 1266.84 567.263 1282.53 521.856 1299.29 483.602 z" fill="rgb(232,168,56)" transform="translate(0,0)"></path>
<path d="M 1003.62 1287.33 C 1023.94 1288.19 1164.46 1285.86 1169.93 1287.97 L 1170.78 1290.9 C 1144.43 1355.84 1122.19 1425.14 1096.83 1490.66 C 1088.17 1513.03 1078.62 1543.26 1069.22 1564.41 C 1013.42 1564.82 953.264 1563.62 897.985 1565.05 C 904.02 1548.07 911.292 1530.86 917.71 1513.86 L 957.505 1407.61 C 970.227 1374.01 984.694 1331.69 998.376 1299.25 C 1000.15 1296.59 1002.34 1290.53 1003.62 1287.33 z" fill="rgb(232,168,56)" transform="translate(0,0)"></path>
<metadata><recraft-signature>{"signed_by": "recraft", "signature_b64": "xhWCese36qdEKlATbFK8HJW1EXY4X7el38+RTjXa50D2s4BQ3gHSN79OLLMlOSjB8BgTu2e1Wv8mKeqin9FMCw==", "signing_algo": "Ed25519", "generation_timestamp": 1780717662, "identifier": "bf37b1ff-2d4a-4647-98f2-5fa5f370562e"}</recraft-signature></metadata></svg>