<svg xmlns="http://www.w3.org/2000/svg" height="1024" preserveAspectRatio="none" style="display: block;" version="1.1" viewBox="0 0 2048 2048" width="1024">
<path d="M 1309.79 511.774 L 1311.39 513.39 C 1288.93 556.499 1266.24 599.488 1243.32 642.353 L 1124.97 865.214 L 1072.3 963.105 C 1066.34 974.277 1055.01 993.124 1050.42 1003.83 C 1092.53 1049.1 1133.02 1102.53 1169.89 1152.55 C 1199.38 1192.55 1233.63 1237.83 1260.47 1279.25 C 1203.21 1230.86 1147.4 1180.79 1093.11 1129.1 L 1049.33 1087.33 C 1038.31 1076.98 1027.39 1067.74 1017.17 1056.52 C 1023.71 1047.3 1035.62 1024.6 1041.25 1014.21 C 1025.9 1002.03 1011.42 980.249 996.159 970.254 C 999.969 962.284 1025.55 927.127 1032.38 917.244 L 1108.07 806.503 L 1232.71 623.932 C 1257.36 587.625 1283.9 546.823 1309.79 511.774 z" fill="rgb(185,122,30)" transform="translate(0,0)"></path>
<path d="M 823.251 1027.11 C 828.005 1024.91 858.079 1018.93 865.736 1017.23 L 913.665 1006.49 C 922.472 1004.52 937.27 1000.84 945.871 1000.36 C 931.583 1014.53 916.416 1027.37 901.443 1040.73 L 848.672 1088.36 C 789.798 1142.25 730.312 1195.47 670.228 1248.01 C 605.789 1306.14 540.786 1363.65 475.228 1420.52 C 435.59 1455.5 391.077 1495.73 350.378 1529.18 L 347.707 1528.74 C 356.293 1520.13 365.873 1508.64 374.677 1499.38 L 489.623 1376.53 L 643.052 1216.25 C 702.752 1153.48 762.77 1088.99 823.251 1027.11 z" fill="rgb(185,122,30)" transform="translate(0,0)"></path>
<path d="M 1109.71 1010.3 C 1142.83 1012.37 1186.83 1022.19 1221.58 1025.69 C 1258.72 1065.69 1300.91 1106.65 1339.44 1146.05 C 1413.64 1221.33 1487.38 1297.04 1560.68 1373.18 C 1593.63 1407 1626.32 1441.06 1658.75 1475.37 C 1671.74 1489.16 1689.34 1506.74 1701.41 1520.82 L 1700.59 1522.84 C 1690.38 1515.47 1665.08 1492.56 1654.07 1483.33 C 1612.47 1448.48 1571.15 1413.29 1530.13 1377.76 C 1388.5 1256.99 1248.35 1134.49 1109.71 1010.3 z" fill="rgb(45,41,38)" transform="translate(0,0)"></path>
<path d="M 823.251 1027.11 C 804.133 1017.1 782.308 1007.43 762.586 998.022 L 654.839 946.51 L 385.05 816.539 L 291.975 772.236 C 278.585 765.812 259.098 757.215 246.714 749.915 C 372.053 792.046 498.254 839.728 623.022 884.355 L 870.939 973.162 C 894.22 981.499 917.435 989.389 940.986 996.937 C 943.668 997.796 944.693 998.282 945.871 1000.36 C 937.27 1000.84 922.472 1004.52 913.665 1006.49 L 865.736 1017.23 C 858.079 1018.93 828.005 1024.91 823.251 1027.11 z" fill="rgb(45,41,38)" transform="translate(0,0)"></path>
<path d="M 1109.71 1010.3 C 1106.57 1008.3 1107.58 1009.6 1106.11 1006.68 C 1109.14 1003.38 1154.11 986.895 1162.55 983.537 C 1278.92 937.03 1396.09 892.53 1514 850.057 C 1562.31 832.044 1610.83 814.629 1659.56 797.816 C 1700.01 783.537 1744.84 767.407 1785.93 755.985 L 1786.87 757.792 C 1673.28 813.309 1556.67 865.286 1442.71 920.451 C 1389.32 946.257 1335.79 971.78 1282.13 997.019 C 1269.41 1002.96 1232.44 1021.96 1221.58 1025.69 C 1186.83 1022.19 1142.83 1012.37 1109.71 1010.3 z" fill="rgb(185,122,30)" transform="translate(0,0)"></path>
<path d="M 996.159 970.254 C 1011.42 980.249 1025.9 1002.03 1041.25 1014.21 C 1035.62 1024.6 1023.71 1047.3 1017.17 1056.52 C 982.8 1093.92 942.732 1133.93 906.991 1170.5 L 792.551 1287.97 C 805.215 1266.71 821.278 1243.17 834.754 1222.05 L 921.139 1087.05 C 945.622 1049.37 973.079 1008.44 996.159 970.254 z" fill="rgb(45,41,38)" transform="translate(0,0)"></path>
<path d="M 1701.41 1520.82 C 1704.94 1524.28 1710.09 1529.1 1712.78 1533.22 C 1712.95 1533.48 1712.32 1533.95 1711.6 1533.36 C 1707.94 1530.35 1703.63 1526.43 1700.59 1522.84 L 1701.41 1520.82 z" fill="rgb(122,101,78)" fill-opacity="0.780392" transform="translate(0,0)"></path>
<path d="M 347.707 1528.74 L 350.378 1529.18 C 349.34 1530.18 345.162 1534.29 343.924 1534.46 C 341.198 1534.84 347.944 1528.5 347.707 1528.74 z" fill="rgb(232,168,56)" fill-opacity="0.694118" transform="translate(0,0)"></path>
<path d="M 1309.79 511.774 C 1310.51 510.745 1312.17 507.704 1313.49 507.5 C 1314.87 508.123 1311.76 512.727 1311.39 513.39 L 1309.79 511.774 z" fill="rgb(232,168,56)" fill-opacity="0.905882" transform="translate(0,0)"></path>
<path d="M 1785.93 755.985 C 1787.28 755.53 1791.24 753.597 1792.44 754.5 C 1792.62 755.806 1787.58 757.506 1786.87 757.792 L 1785.93 755.985 z" fill="rgb(232,168,56)" fill-opacity="0.886275" transform="translate(0,0)"></path>
<metadata><recraft-signature>{"signed_by": "recraft", "signature_b64": "tIwUNXBp3qCDbst1ybOTIaHPSNMQtt13Ib/xuraOpAjFzG+WaLvca/RNsweL4SI6rrk4qpbxKqITBWGd/t0FCQ==", "signing_algo": "Ed25519", "generation_timestamp": 1780717678, "identifier": "e21d267f-6e30-45a2-a6d0-f72822b04912"}</recraft-signature></metadata></svg>