<svg xmlns="http://www.w3.org/2000/svg" height="1024" preserveAspectRatio="none" style="display: block;" version="1.1" viewBox="0 0 2048 2048" width="1024">
<path d="M 1448.35 307.024 C 1496.53 343.382 1545.33 382.145 1593.03 419.309 L 1253.47 798.081 L 1083.97 986.069 C 1062.89 1009.71 1038.37 1035.87 1018.15 1059.82 C 1007.93 1070.01 997.227 1082.01 987.107 1092.64 C 978.503 1101.68 963.673 1116.25 956.609 1125.77 L 956.875 1157.29 C 959.239 1158.64 965.216 1161.84 967.038 1163.36 C 964.563 1214.22 965.176 1272.07 964.694 1323.17 L 961.183 1597.1 L 960.13 1690.51 C 960.013 1703.53 960.501 1727.49 958.918 1739.55 C 912.725 1728.83 866.002 1720.34 820.142 1709.39 C 821.73 1679.78 825.503 1646.81 827.805 1616.84 L 849.166 1354.53 L 858.519 1230.65 C 860.912 1198.3 860.918 1181.15 866.557 1148.34 C 869.507 1131.8 876.317 1083.27 883.036 1069.76 C 895.199 1045.29 929.012 1013.18 940.803 988.412 C 972.396 945.355 1004.31 902.537 1036.56 859.963 C 1105.13 766.563 1174.26 673.578 1243.95 581.012 C 1311.31 491.035 1379.55 395.586 1448.35 307.024 z" fill="rgb(232,168,56)" transform="translate(0,0)"></path>
<path d="M 631.199 519.5 C 646.548 512.386 671.509 503.715 687.745 497.544 L 776.775 463.03 C 780.522 473.548 784.329 487.466 787.761 498.457 L 811.03 572.676 L 901.858 863.462 C 914.673 904.245 926.745 948.395 940.803 988.412 C 929.012 1013.18 895.199 1045.29 883.036 1069.76 C 876.317 1083.27 869.507 1131.8 866.557 1148.34 C 853.808 1150.23 828.666 1158.09 814.978 1161.78 C 782.364 1170.21 749.837 1178.98 717.403 1188.08 L 537.656 1237.74 C 487.171 1251.87 435.558 1267.09 384.87 1279.96 C 371.575 1237.37 357.836 1187.71 346.458 1144.65 C 377.595 1138.18 419.403 1132.65 451.944 1127.12 L 734.08 1079.96 C 770.948 1073.63 824.999 1065.98 859.771 1057.48 C 855.496 1042.98 843.513 1017.04 837.317 1002.39 C 822.994 968.215 808.469 934.13 793.742 900.132 L 686.355 648.76 C 668.393 606.679 647.753 561.85 631.199 519.5 z" fill="rgb(45,41,38)" transform="translate(0,0)"></path>
<path d="M 1018.15 1059.82 C 1041.57 1068.36 1074.64 1083.73 1098.07 1094.05 L 1249.1 1161.25 C 1399.21 1227.51 1552.75 1295.02 1701.71 1363.7 C 1688.29 1391.02 1667.42 1425.28 1652.18 1452.3 C 1637.36 1478.56 1621.9 1507.53 1606.65 1533.23 C 1590.76 1526.04 1562.41 1508.07 1546.16 1498.71 C 1500.26 1472.45 1454.53 1445.88 1408.99 1419 L 1157.07 1273.47 C 1095.02 1237.35 1029.72 1197.57 967.038 1163.36 C 965.216 1161.84 959.239 1158.64 956.875 1157.29 L 956.609 1125.77 C 963.673 1116.25 978.503 1101.68 987.107 1092.64 C 997.227 1082.01 1007.93 1070.01 1018.15 1059.82 z" fill="rgb(45,41,38)" transform="translate(0,0)"></path>
<metadata><recraft-signature>{"signed_by": "recraft", "signature_b64": "GpZH9HIEhY4TBEBDSAMCak/IbTvfBxsFQyGDItGhtey1rdPT1zaAYHH7Co5JYPEu4UokWJa5E1QhxBl2UJ0dBQ==", "signing_algo": "Ed25519", "generation_timestamp": 1780717647, "identifier": "ce52e40e-7459-4cd7-a3f6-5eb0ebe40a76"}</recraft-signature></metadata></svg>