<svg xmlns="http://www.w3.org/2000/svg" height="1024" preserveAspectRatio="none" style="display: block;" version="1.1" viewBox="0 0 2048 2048" width="1024">
<path d="M 122.907 131.94 L 327.41 131.995 C 358.659 131.995 395.151 131.253 426.045 132.562 C 526.983 229.27 628.41 325.466 730.322 421.146 C 752.299 441.811 774.359 461.637 796.381 482.622 C 797.309 489.124 796.94 501.798 796.933 508.866 L 796.901 554.524 L 796.723 709.703 C 783.861 700.624 767.457 685.001 755.033 674.521 C 726.921 651.276 698.975 627.831 671.198 604.187 L 434.018 401.78 C 435.383 492.727 433.491 584.683 434.009 675.83 C 450.037 690.725 469.952 706.85 486.783 721.342 C 521.579 751.621 556.66 781.573 592.019 811.193 C 640.055 851.612 686.746 892.971 735.302 933.52 C 753.764 918.882 780.282 897.323 797.268 881.221 L 797.279 879.763 C 803.484 875.378 809.717 870.294 815.41 865.25 C 862.604 823.441 912.799 783.847 958.405 740.334 C 959.648 760.9 959.297 783.932 959.013 804.644 C 958.277 858.337 959.995 912.638 958.853 966.258 C 957.836 984.206 958.277 1006.77 958.296 1024.91 L 958.455 1123.05 C 978.958 1141.68 1003.88 1161.45 1025.67 1178.44 C 1047.24 1158.58 1069.9 1141.68 1091.6 1122.46 L 1091.74 1026.59 C 1091.71 1008.84 1092.24 982.384 1090.52 965.371 C 1074.29 950.006 1056.54 935.801 1039.85 920.905 C 1035.41 916.944 1030.88 913.064 1026.04 909.614 C 1047.2 889.89 1073.91 870.828 1094.42 850.951 C 1093.5 776.066 1095.37 700.135 1093.97 625.512 C 1124.12 598.882 1154.15 572.099 1184.03 545.164 C 1205.67 525.784 1229.23 505.831 1249.13 484.905 C 1292.32 446.499 1336.24 403.703 1378.37 363.859 L 1506.77 243.975 C 1536.52 215.687 1566.65 187.792 1597.13 160.297 C 1605.8 152.591 1619.07 139.704 1627.6 133.05 C 1647.24 131.618 1670.05 132.095 1690.02 132.093 L 1783.67 132.135 L 1874.54 132.168 C 1888.15 132.174 1909.74 131.574 1922.87 132.51 C 1910.87 144.988 1898.37 154.375 1886.41 165.893 C 1853.38 197.719 1814.4 229.841 1782.85 262.553 C 1780.44 311.024 1781.94 371.651 1782.09 421.044 L 1782.33 492.409 C 1782.36 506.721 1782.01 523.242 1783.01 537.375 C 1815.32 514.237 1847.79 483.994 1879.05 459.133 C 1888.97 451.245 1903.79 437.18 1913.57 430.442 C 1912.64 504.507 1913.84 578.694 1913.02 652.726 C 1880.94 679.153 1849.09 705.85 1817.46 732.812 C 1806.29 742.382 1793.06 752.888 1782.45 762.69 C 1780.42 804.137 1781.83 858.525 1781.8 900.801 L 1781.36 1145.48 C 1781.35 1206.57 1781.32 1267.67 1781.77 1328.76 C 1781.81 1333.28 1781.55 1340.53 1782.2 1344.8 C 1809.47 1370.54 1841.38 1392.8 1869.66 1417.51 C 1883.4 1429.5 1898.81 1440.81 1911.87 1453.47 C 1913.9 1471.81 1913.05 1497.45 1912.72 1516.25 C 1911.79 1569.98 1914.13 1624.6 1912.75 1678.18 C 1892.28 1660.86 1872.93 1644.03 1852.1 1627.02 C 1833.83 1612.08 1797.19 1584.17 1781.75 1567.73 L 1781.93 1790.88 C 1785.92 1795.02 1790.28 1798.78 1794.51 1802.66 C 1835.45 1840.18 1878.22 1875.72 1918.59 1913.87 C 1818.53 1911.83 1715.19 1916 1614.9 1913.79 L 1373.73 1705.54 L 1292.61 1634.52 C 1282.85 1625.91 1258.3 1603.22 1248.95 1596.82 C 1247.49 1616.36 1248.66 1647.8 1248.72 1668.08 L 1248.78 1797.4 C 1258 1807.93 1271.45 1819.83 1281.87 1829.64 C 1311.69 1857.72 1345.78 1884.94 1374.4 1914 L 1091.78 1914.11 L 1090.99 1463.07 C 1086.8 1459.02 1082.4 1455.24 1077.91 1451.53 C 1059.5 1436.35 1042.05 1420.02 1023.6 1404.89 L 979.481 1442.64 C 974.287 1447.09 960.948 1458.05 956.877 1462.64 C 904.213 1508.66 850.965 1553.99 797.145 1598.65 C 788.063 1605.68 776.608 1616.42 767.571 1624.16 L 691.315 1690.09 L 522.971 1833.65 C 496.947 1856.24 457.052 1894.53 430.685 1913.84 C 402.815 1914.73 372.153 1913.9 344.079 1914.07 C 271.812 1914.5 199.257 1913.29 127.007 1914.14 C 136.522 1906.94 149.859 1894.25 159.556 1886 C 196.542 1854.04 233.227 1821.72 269.606 1789.07 C 270.51 1713.29 269.961 1636.42 270.015 1560.56 C 252.903 1577.17 230.585 1595.98 212.487 1611.71 C 186.446 1634.52 160.215 1657.11 133.796 1679.48 C 133.618 1636.48 133.668 1593.49 133.944 1550.5 C 133.942 1518.92 133.117 1485.51 133.903 1454.1 C 176.697 1414.92 225.663 1375.85 270.104 1337.48 L 270.176 764.314 C 253.298 752.876 224.701 727.672 207.764 713.818 L 161.471 675.553 C 153.579 669.002 140.561 658.807 134.06 651.566 C 132.845 627.782 133.752 596.489 133.765 572.23 C 134.006 524.171 133.789 476.11 133.115 428.055 C 177.655 467.629 226.06 504.702 270.117 544.117 C 268.66 451.887 270.077 356.137 270.192 263.637 C 261.268 254.582 247.948 243.326 238.23 234.623 L 180.686 183.203 C 163.844 168.238 139.504 144.104 122.907 131.94 z M 1248.6 714.174 C 1249.97 764.05 1249.22 825.248 1248.51 875.43 C 1267.38 891.888 1286.1 908.606 1305.71 924.195 C 1309.09 926.881 1312.39 929.729 1316.03 932.058 L 1528.58 749.068 C 1554.89 726.765 1587.64 695.404 1614.14 675.498 C 1617.56 598.978 1612.66 519.082 1614.54 442.268 C 1614.85 429.636 1614.65 414.706 1613.92 402.118 C 1581.93 427.182 1549.95 456.253 1519.13 482.867 L 1371.72 609.042 C 1341.19 634.517 1310.94 660.326 1280.98 686.463 C 1273.66 692.729 1253.62 708.098 1248.6 714.174 z M 434.9 1420.04 L 434.899 1594.53 C 434.831 1620.42 433.28 1660.67 435.005 1685.23 C 485.373 1644.44 535.288 1597.68 585.346 1555.59 L 690.952 1466.06 C 724.755 1437.95 765.047 1405.64 797.092 1375.75 C 796.024 1321.29 796.753 1262 797.049 1207.4 C 778.098 1192.05 756.546 1172.84 737.652 1158.57 C 719.391 1173.37 700.131 1190.78 681.959 1206.21 C 629.718 1250.48 577.886 1295.23 526.472 1340.46 C 497.516 1365.89 464.417 1396.25 434.9 1420.04 z M 433.75 903.355 C 432.109 924.699 433.379 948.303 433.57 969.927 C 434.225 1044.11 431.056 1119.73 434.17 1193.76 C 472.266 1164.19 511.67 1128.5 548.027 1096.86 C 566.274 1080.99 586.945 1063.77 604.23 1047.31 L 503.551 962.035 C 480.92 943.058 455.516 922.922 433.75 903.355 z M 1443.31 1049.94 C 1467.85 1073.09 1494.57 1093.87 1520.31 1115.65 C 1546.52 1137.82 1571.57 1161.22 1598.48 1182.55 C 1603.5 1186.53 1609.38 1191.06 1614.11 1195.3 C 1615.38 1185.79 1614.92 1166.64 1614.91 1156.21 L 1614.77 1085.99 L 1614.66 964.599 C 1614.66 944.673 1615.33 922.904 1614.61 903.196 C 1600.8 915.903 1585.38 928.508 1571.08 940.838 L 1443.31 1049.94 z M 1248.27 1373.33 L 1248.78 1373.73 C 1326.4 1439.32 1403.49 1505.53 1480.03 1572.38 C 1523.47 1610.21 1569.81 1651.95 1614.7 1687.68 C 1616.49 1635.45 1614.82 1572.88 1614.75 1520.17 L 1614.69 1460.72 C 1614.69 1451.83 1615.09 1434.38 1613.97 1426.05 C 1581.34 1394.09 1543.14 1362.28 1508.06 1332.8 C 1442.22 1277.47 1378.81 1216.07 1311.84 1162.49 C 1290.7 1179.89 1270.22 1199.67 1248.62 1217.55 L 1248.91 1319.21 C 1248.91 1333.79 1249.58 1359.75 1248.27 1373.33 z" fill="rgb(45,41,38)" transform="translate(0,0)"></path>
<path d="M 122.907 131.94 L 327.41 131.995 C 358.659 131.995 395.151 131.253 426.045 132.562 C 526.983 229.27 628.41 325.466 730.322 421.146 C 752.299 441.811 774.359 461.637 796.381 482.622 C 797.309 489.124 796.94 501.798 796.933 508.866 L 796.901 554.524 L 796.723 709.703 C 783.861 700.624 767.457 685.001 755.033 674.521 C 726.921 651.276 698.975 627.831 671.198 604.187 L 434.018 401.78 C 435.383 492.727 433.491 584.683 434.009 675.83 C 432.541 716.486 433.842 765.395 433.708 806.963 L 433.505 867.87 C 433.473 877.991 433.014 893.474 433.75 903.355 C 432.109 924.699 433.379 948.303 433.57 969.927 C 434.225 1044.11 431.056 1119.73 434.17 1193.76 C 432.505 1208.37 433.764 1254.58 433.898 1271.76 C 434.277 1320.41 433.162 1370.23 433.943 1418.73 C 378.448 1464.41 324.681 1514.52 269.71 1561.05 C 270.423 1488.38 271.192 1410.02 270.104 1337.48 L 270.176 764.314 C 253.298 752.876 224.701 727.672 207.764 713.818 L 161.471 675.553 C 153.579 669.002 140.561 658.807 134.06 651.566 C 132.845 627.782 133.752 596.489 133.765 572.23 C 134.006 524.171 133.789 476.11 133.115 428.055 C 177.655 467.629 226.06 504.702 270.117 544.117 C 268.66 451.887 270.077 356.137 270.192 263.637 C 261.268 254.582 247.948 243.326 238.23 234.623 L 180.686 183.203 C 163.844 168.238 139.504 144.104 122.907 131.94 z" fill="rgb(232,168,56)" transform="translate(0,0)"></path>
<path d="M 133.115 428.055 C 177.655 467.629 226.06 504.702 270.117 544.117 L 270.582 688.829 C 270.643 707.622 271.808 746.916 270.176 764.314 C 253.298 752.876 224.701 727.672 207.764 713.818 L 161.471 675.553 C 153.579 669.002 140.561 658.807 134.06 651.566 C 132.845 627.782 133.752 596.489 133.765 572.23 C 134.006 524.171 133.789 476.11 133.115 428.055 z" fill="rgb(45,41,38)" transform="translate(0,0)"></path>
<path d="M 1627.6 133.05 C 1647.24 131.618 1670.05 132.095 1690.02 132.093 L 1783.67 132.135 L 1874.54 132.168 C 1888.15 132.174 1909.74 131.574 1922.87 132.51 C 1910.87 144.988 1898.37 154.375 1886.41 165.893 C 1853.38 197.719 1814.4 229.841 1782.85 262.553 C 1780.44 311.024 1781.94 371.651 1782.09 421.044 L 1782.33 492.409 C 1782.36 506.721 1782.01 523.242 1783.01 537.375 C 1780.97 543.754 1781.6 606.281 1781.77 616.15 C 1782.6 663.951 1780.98 713.99 1782.34 761.622 C 1750.39 787.551 1718.75 814.981 1686.93 841.284 C 1663.55 860.615 1636.62 881.848 1614.77 902.129 C 1614.41 850.874 1614.32 799.617 1614.51 748.361 C 1614.48 725.218 1614.99 698.384 1614.14 675.498 C 1617.56 598.978 1612.66 519.082 1614.54 442.268 C 1614.85 429.636 1614.65 414.706 1613.92 402.118 C 1581.93 427.182 1549.95 456.253 1519.13 482.867 L 1371.72 609.042 C 1341.19 634.517 1310.94 660.326 1280.98 686.463 C 1273.66 692.729 1253.62 708.098 1248.6 714.174 C 1249.97 764.05 1249.22 825.248 1248.51 875.43 C 1267.38 891.888 1286.1 908.606 1305.71 924.195 C 1309.09 926.881 1312.39 929.729 1316.03 932.058 C 1275.85 971.447 1229.45 1008.72 1188.02 1047.52 C 1163.98 1026.09 1139.51 1005.14 1114.62 984.706 C 1108.19 979.5 1096.73 969.681 1090.52 965.371 C 1074.29 950.006 1056.54 935.801 1039.85 920.905 C 1035.41 916.944 1030.88 913.064 1026.04 909.614 C 1047.2 889.89 1073.91 870.828 1094.42 850.951 C 1093.5 776.066 1095.37 700.135 1093.97 625.512 C 1124.12 598.882 1154.15 572.099 1184.03 545.164 C 1205.67 525.784 1229.23 505.831 1249.13 484.905 C 1292.32 446.499 1336.24 403.703 1378.37 363.859 L 1506.77 243.975 C 1536.52 215.687 1566.65 187.792 1597.13 160.297 C 1605.8 152.591 1619.07 139.704 1627.6 133.05 z" fill="rgb(232,168,56)" transform="translate(0,0)"></path>
<path d="M 1248.6 714.174 C 1249.97 764.05 1249.22 825.248 1248.51 875.43 C 1240.07 869.48 1225.72 856.454 1217.46 849.281 L 1154.48 793.975 C 1159.97 789.749 1165.51 785.173 1170.7 780.564 C 1196.05 758.017 1223.75 737.172 1248.6 714.174 z" fill="rgb(45,41,38)" transform="translate(0,0)"></path>
<path d="M 797.279 879.763 C 803.484 875.378 809.717 870.294 815.41 865.25 C 862.604 823.441 912.799 783.847 958.405 740.334 C 959.648 760.9 959.297 783.932 959.013 804.644 C 958.277 858.337 959.995 912.638 958.853 966.258 C 957.836 984.206 958.277 1006.77 958.296 1024.91 L 958.455 1123.05 C 956.907 1160.18 959.021 1202.18 958.304 1240.03 C 905.662 1284.25 850.821 1333.44 797.092 1375.75 C 796.024 1321.29 796.753 1262 797.049 1207.4 C 778.098 1192.05 756.546 1172.84 737.652 1158.57 C 755.888 1141.47 778.871 1122.85 798.112 1106.46 C 796.986 1045.61 798.583 984.269 797.899 923.372 C 797.753 910.334 798.811 894.021 797.268 881.221 L 797.279 879.763 z" fill="rgb(232,168,56)" transform="translate(0,0)"></path>
<path d="M 1311.84 1162.49 C 1332.06 1143.54 1356.46 1124.39 1377.48 1105.99 C 1399.02 1087.13 1420.84 1067.55 1443.31 1049.94 C 1467.85 1073.09 1494.57 1093.87 1520.31 1115.65 C 1546.52 1137.82 1571.57 1161.22 1598.48 1182.55 C 1603.5 1186.53 1609.38 1191.06 1614.11 1195.3 C 1615.94 1262.47 1613.33 1330.63 1614.29 1397.89 C 1614.41 1406.92 1614.52 1417.09 1613.97 1426.05 C 1581.34 1394.09 1543.14 1362.28 1508.06 1332.8 C 1442.22 1277.47 1378.81 1216.07 1311.84 1162.49 z" fill="rgb(232,168,56)" transform="translate(0,0)"></path>
<path d="M 1152.54 1296.04 C 1175.74 1313.14 1197.96 1333.09 1220.44 1351.16 C 1226.04 1355.67 1243.04 1370.54 1248.27 1373.33 L 1248.78 1373.73 C 1249.66 1448.03 1249.01 1523.18 1249.05 1597.55 C 1231.12 1580.63 1207.89 1561.5 1188.75 1545.2 C 1156.4 1517.54 1123.81 1490.17 1090.99 1463.07 C 1086.8 1459.02 1082.4 1455.24 1077.91 1451.53 C 1059.5 1436.35 1042.05 1420.02 1023.6 1404.89 L 1152.54 1296.04 z" fill="rgb(232,168,56)" transform="translate(0,0)"></path>
<path d="M 1781.75 1567.73 C 1784.38 1495.49 1779.86 1417.63 1782.2 1344.8 C 1809.47 1370.54 1841.38 1392.8 1869.66 1417.51 C 1883.4 1429.5 1898.81 1440.81 1911.87 1453.47 C 1913.9 1471.81 1913.05 1497.45 1912.72 1516.25 C 1911.79 1569.98 1914.13 1624.6 1912.75 1678.18 C 1892.28 1660.86 1872.93 1644.03 1852.1 1627.02 C 1833.83 1612.08 1797.19 1584.17 1781.75 1567.73 z" fill="rgb(232,168,56)" transform="translate(0,0)"></path>
<path d="M 796.748 133.785 L 899.283 133.939 C 914.517 133.984 943.346 133.276 957.914 134.877 L 957.841 506.969 C 957.955 545.112 959.132 584.904 958.841 622.7 C 971.395 632.02 981.714 641.295 993.535 651.467 C 1004.89 661.242 1016.93 670.408 1028.31 680.203 C 1049.8 662.823 1071.23 643.709 1092.18 625.51 C 1090.35 576.022 1091.68 519.864 1091.62 469.906 L 1091.07 134.02 C 1129.45 133.187 1168.13 134.228 1206.54 133.926 C 1220.53 133.815 1234.77 133.843 1248.73 134.33 L 1248.5 356.996 C 1248.42 396.932 1247.13 445.562 1249.13 484.905 C 1229.23 505.831 1205.67 525.784 1184.03 545.164 C 1154.15 572.099 1124.12 598.882 1093.97 625.512 C 1095.37 700.135 1093.5 776.066 1094.42 850.951 C 1073.91 870.828 1047.2 889.89 1026.04 909.614 C 1003.41 927.266 981.745 947.856 958.853 966.258 C 959.995 912.638 958.277 858.337 959.013 804.644 C 959.297 783.932 959.648 760.9 958.405 740.334 C 912.799 783.847 862.604 823.441 815.41 865.25 C 809.717 870.294 803.484 875.378 797.279 879.763 C 796.54 859.366 797.011 836.573 797.009 816.014 L 796.723 709.703 L 796.901 554.524 L 796.933 508.866 C 796.94 501.798 797.309 489.124 796.381 482.622 C 797.709 451.75 796.994 414.908 796.978 383.748 L 796.766 213.777 C 796.738 189.349 795.698 157.379 796.748 133.785 z" fill="rgb(45,41,38)" transform="translate(0,0)"></path>
<path d="M 958.841 622.7 C 971.395 632.02 981.714 641.295 993.535 651.467 C 1004.89 661.242 1016.93 670.408 1028.31 680.203 C 1006.84 699.959 981.876 722.197 958.733 740.188 C 958.487 701.935 957.639 660.734 958.841 622.7 z" fill="rgb(232,168,56)" transform="translate(0,0)"></path>
<path d="M 956.877 1462.64 C 959.017 1473.49 958.032 1514.91 957.991 1528.06 L 957.639 1664.55 L 957.892 1836.16 L 958.178 1884.57 C 958.319 1893.75 959.05 1905.57 958.549 1914.43 C 887.049 1914 815.547 1913.94 744.046 1914.26 C 718.307 1914.34 690.963 1915.05 665.432 1914.81 C 699.181 1884.3 734.309 1854.91 768.136 1824.44 C 777.335 1816.15 787.519 1806.14 797.169 1798.64 C 796.826 1731.97 796.818 1665.31 797.145 1598.65 C 850.965 1553.99 904.213 1508.66 956.877 1462.64 z" fill="rgb(232,168,56)" transform="translate(0,0)"></path>
<metadata><recraft-signature>{"signed_by": "recraft", "signature_b64": "P/4Y6H00fMhEVy3Wv2UqCVGcgJtEGfx/O+BwsgqtA66iV4KdUw7xAUfSUJJDNC9YNYbit9MYFMI0XZM65qW7Aw==", "signing_algo": "Ed25519", "generation_timestamp": 1780717631, "identifier": "946f6d57-350d-41d2-a93f-a8a49eda1746"}</recraft-signature></metadata></svg>